<?xml version="1.0" encoding="UTF-8"?>
<svg version="1.1" xmlns="http://www.w3.org/2000/svg" width="128" height="128">
<path d="M0 0 C0.84940659 -0.00511093 1.69881317 -0.01022186 2.57395935 -0.01548767 C5.37498061 -0.02936006 8.17575517 -0.02842872 10.97680664 -0.02612305 C12.92826936 -0.03001116 14.87973124 -0.03434607 16.83119202 -0.03910828 C20.91906479 -0.04656534 25.00685118 -0.04628284 29.09472656 -0.04101562 C34.32809175 -0.03522054 39.56110307 -0.05215548 44.79440975 -0.0753603 C48.82391927 -0.09010573 52.85334372 -0.09096825 56.88287544 -0.08785057 C58.81214664 -0.08836334 60.74142266 -0.09359268 62.67066765 -0.10366249 C65.37052155 -0.11602573 68.06968801 -0.10923602 70.76953125 -0.09765625 C71.95968842 -0.10912186 71.95968842 -0.10912186 73.17388916 -0.12081909 C77.99130782 -0.07524613 81.26132998 0.64359623 85.44946289 3.2746582 C88.69725257 7.19794704 88.82456516 10.47805816 88.81274414 15.47387695 C88.8134919 16.48826591 88.8134919 16.48826591 88.81425476 17.52314758 C88.81192489 18.94433551 88.80226078 20.3655284 88.78564453 21.78662109 C88.76192163 23.96594851 88.76510711 26.14406145 88.77172852 28.32348633 C88.72873807 38.99538303 88.72873807 38.99538303 86.44946289 41.2746582 C84.57006836 41.50170898 84.57006836 41.50170898 82.31665039 41.4699707 C81.51098633 41.46352539 80.70532227 41.45708008 79.87524414 41.45043945 C79.03348633 41.43368164 78.19172852 41.41692383 77.32446289 41.3996582 C76.05022461 41.38612305 76.05022461 41.38612305 74.75024414 41.37231445 C72.64986405 41.34871468 70.54962845 41.31284303 68.44946289 41.2746582 C68.45945564 42.80561882 68.45945564 42.80561882 68.46965027 44.36750793 C68.53040972 53.97618172 68.57541064 63.58481665 68.60489941 73.1936388 C68.62056943 78.1338939 68.64183207 83.07399417 68.67578125 88.01416016 C68.70832706 92.77982293 68.72630583 97.5453366 68.73409462 102.31110191 C68.73964673 104.13122595 68.75048841 105.95134164 68.76665306 107.77140236 C68.78836401 110.31669512 68.7914325 112.86136815 68.79003906 115.40673828 C68.80082489 116.16271301 68.81161072 116.91868774 68.82272339 117.6975708 C68.80609733 120.49580291 68.73207828 122.74204721 67.4054718 125.24214172 C64.32284316 126.86936584 61.21421482 126.69103892 57.81274414 126.6628418 C57.03683929 126.66809875 56.26093445 126.67335571 55.46151733 126.67877197 C52.89479487 126.69198405 50.32869175 126.68322986 47.76196289 126.6730957 C45.9798165 126.6751161 44.19767091 126.67802725 42.41552734 126.68179321 C38.67968884 126.68621819 34.94406546 126.67977996 31.20825195 126.66577148 C26.41617205 126.64867944 21.62459619 126.6585197 16.83253479 126.67648888 C13.15226433 126.68732205 9.47211364 126.68388253 5.7918396 126.6761055 C4.0247695 126.6741022 2.25768857 126.67656732 0.4906311 126.68354416 C-1.97781235 126.69115106 -4.44543606 126.67956573 -6.91381836 126.6628418 C-7.64637848 126.66891449 -8.3789386 126.67498718 -9.13369751 126.6812439 C-11.87127677 126.64682904 -14.06072325 126.53321576 -16.50654602 125.24214172 C-18.17718007 122.09370014 -17.9406982 118.88212719 -17.89111328 115.40673828 C-17.89155136 114.60650742 -17.89198944 113.80627655 -17.8924408 112.98179626 C-17.89035008 110.33567948 -17.86700605 107.69019561 -17.84350586 105.04418945 C-17.8379109 103.21002041 -17.83364033 101.37584688 -17.8306427 99.54167175 C-17.81918602 94.71318188 -17.78971176 89.88496254 -17.75653076 85.05657959 C-17.72584762 80.12996073 -17.71214112 75.20329818 -17.69702148 70.27661133 C-17.66484285 60.60917473 -17.61363654 50.94193896 -17.55053711 41.2746582 C-16.23053711 41.2746582 -14.91053711 41.2746582 -13.55053711 41.2746582 C-13.22053711 67.3446582 -12.89053711 93.4146582 -12.55053711 120.2746582 C12.52946289 120.6046582 37.60946289 120.9346582 63.44946289 121.2746582 C63.42625977 113.5712207 63.40305664 105.8677832 63.37915039 97.9309082 C63.36892921 93.04548816 63.3593011 88.16008133 63.35180664 83.2746582 C63.33985935 75.52332821 63.32573773 67.77204554 63.29858398 60.02075195 C63.27682525 53.77027366 63.26488781 47.51984614 63.2597084 41.26933289 C63.25601811 38.88676657 63.24881191 36.50420298 63.23800278 34.12165833 C63.22344778 30.78001945 63.22148665 27.43858939 63.22241211 24.09692383 C63.21522156 23.11580627 63.20803101 22.13468872 63.20062256 21.12384033 C63.21745242 15.49378832 63.84678822 10.67799823 65.44946289 5.2746582 C55.85267364 5.33582304 46.25618334 5.41289529 36.65969372 5.51037312 C32.20381154 5.55513248 27.74802197 5.59437613 23.29199219 5.62109375 C18.9929909 5.64707148 14.69434493 5.68743409 10.39556313 5.73784447 C8.75413744 5.75455076 7.11265023 5.76604156 5.47115135 5.77227211 C3.17472308 5.78187267 0.87921158 5.80988135 -1.41699219 5.84228516 C-2.7249324 5.85338821 -4.03287262 5.86449127 -5.38044739 5.87593079 C-8.5116479 6.0055101 -8.5116479 6.0055101 -10.43388367 7.67668152 C-12.60023605 10.77682026 -12.7287448 12.96886703 -12.86694336 16.7199707 C-12.90883789 17.79633789 -12.95073242 18.87270508 -12.99389648 19.98168945 C-13.05287109 21.67358398 -13.05287109 21.67358398 -13.11303711 23.3996582 C-13.1562207 24.53532227 -13.1994043 25.67098633 -13.24389648 26.84106445 C-13.3501975 29.65213588 -13.45223116 32.46329765 -13.55053711 35.2746582 C-14.87053711 35.2746582 -16.19053711 35.2746582 -17.55053711 35.2746582 C-17.66705436 30.89988346 -17.73789711 26.52550993 -17.80053711 22.1496582 C-17.83405273 20.9121582 -17.86756836 19.6746582 -17.90209961 18.3996582 C-18.01267837 8.11583387 -18.01267837 8.11583387 -15.84741211 4.5324707 C-11.18695617 -0.04872578 -6.25912269 -0.01949364 0 0 Z " fill="#000000" transform="translate(28.550537109375,0.725341796875)"/>
<path d="M0 0 C1.32 0 2.64 0 4 0 C4.061875 0.5775 4.12375 1.155 4.1875 1.75 C4.85793717 4.25065108 4.85793717 4.25065108 7.5 5.875 C10 8 10 8 10.8125 11.25 C10.874375 12.1575 10.93625 13.065 11 14 C9.68 14.33 8.36 14.66 7 15 C6.608125 14.175 6.21625 13.35 5.8125 12.5 C5.214375 11.675 4.61625 10.85 4 10 C1.37305578 9.58219121 1.37305578 9.58219121 -1 10 C-1.33 10.99 -1.66 11.98 -2 13 C0.59608235 16.89412352 2.60382764 16.76598671 7 18 C9.86514992 19.81459495 10.00420958 21.01623693 10.875 24.375 C11.01492604 28.43285509 10.50204885 29.87243893 8 33 C7.01 33.66 6.02 34.32 5 35 C4.27617533 37.05925139 4.27617533 37.05925139 4 39 C2.35 38.67 0.7 38.34 -1 38 C-1 36.68 -1 35.36 -1 34 C-1.804375 33.71125 -2.60875 33.4225 -3.4375 33.125 C-6 32 -6 32 -7 30 C-7.039992 28.00039988 -7.04346799 25.99952758 -7 24 C-5.68 24 -4.36 24 -3 24 C-2.34 25.65 -1.68 27.3 -1 29 C0.65 29 2.3 29 4 29 C4.33 27.35 4.66 25.7 5 24 C4.38511719 23.74605469 3.77023438 23.49210937 3.13671875 23.23046875 C2.32847656 22.88628906 1.52023438 22.54210937 0.6875 22.1875 C-0.11300781 21.85105469 -0.91351563 21.51460937 -1.73828125 21.16796875 C-4.02984055 19.98459011 -5.42864842 19.03730441 -7 17 C-7.39854748 13.91125705 -7.63762591 11.95626558 -7 9 C-4.625 6.25 -4.625 6.25 -2 4 C-0.70480005 1.83379456 -0.70480005 1.83379456 0 0 Z " fill="#000000" transform="translate(50,14)"/>
<path d="M0 0 C0.88602402 0.00222061 1.77204803 0.00444122 2.68492126 0.00672913 C3.68588333 0.00680466 4.6868454 0.00688019 5.71813965 0.00695801 C6.80666733 0.01211929 7.89519501 0.01728058 9.01670837 0.02259827 C10.67928932 0.02472069 10.67928932 0.02472069 12.37545776 0.02688599 C15.93168281 0.03250418 19.48784596 0.04505977 23.04405212 0.05775452 C25.44834809 0.06276717 27.85264504 0.06733048 30.25694275 0.07142639 C36.16516716 0.08247952 42.07335522 0.09923535 47.98155212 0.12025452 C48.54405212 2.05775452 48.54405212 2.05775452 48.98155212 4.12025452 C47.98155212 5.12025452 47.98155212 5.12025452 45.96310425 5.24050903 C45.07708023 5.23828842 44.19105621 5.23606781 43.27818298 5.23377991 C42.27722092 5.23370438 41.27625885 5.23362885 40.2449646 5.23355103 C39.15643692 5.22838974 38.06790924 5.22322845 36.94639587 5.21791077 C35.83800858 5.21649582 34.72962128 5.21508087 33.58764648 5.21362305 C30.03142143 5.20800485 26.47525829 5.19544926 22.91905212 5.18275452 C20.51475616 5.17774186 18.1104592 5.17317855 15.7061615 5.16908264 C9.79793709 5.15802951 3.88974903 5.14127368 -2.01844788 5.12025452 C-2.58094788 3.18275452 -2.58094788 3.18275452 -3.01844788 1.12025452 C-2.01844788 0.12025452 -2.01844788 0.12025452 0 0 Z " fill="#000000" transform="translate(38.01844787597656,71.87974548339844)"/>
<path d="M0 0 C0.88602402 0.00222061 1.77204803 0.00444122 2.68492126 0.00672913 C3.68588333 0.00680466 4.6868454 0.00688019 5.71813965 0.00695801 C6.80666733 0.01211929 7.89519501 0.01728058 9.01670837 0.02259827 C10.67928932 0.02472069 10.67928932 0.02472069 12.37545776 0.02688599 C15.93168281 0.03250418 19.48784596 0.04505977 23.04405212 0.05775452 C25.44834809 0.06276717 27.85264504 0.06733048 30.25694275 0.07142639 C36.16516716 0.08247952 42.07335522 0.09923535 47.98155212 0.12025452 C48.54405212 2.05775452 48.54405212 2.05775452 48.98155212 4.12025452 C47.98155212 5.12025452 47.98155212 5.12025452 45.96310425 5.24050903 C45.07708023 5.23828842 44.19105621 5.23606781 43.27818298 5.23377991 C42.27722092 5.23370438 41.27625885 5.23362885 40.2449646 5.23355103 C39.15643692 5.22838974 38.06790924 5.22322845 36.94639587 5.21791077 C35.83800858 5.21649582 34.72962128 5.21508087 33.58764648 5.21362305 C30.03142143 5.20800485 26.47525829 5.19544926 22.91905212 5.18275452 C20.51475616 5.17774186 18.1104592 5.17317855 15.7061615 5.16908264 C9.79793709 5.15802951 3.88974903 5.14127368 -2.01844788 5.12025452 C-2.58094788 3.18275452 -2.58094788 3.18275452 -3.01844788 1.12025452 C-2.01844788 0.12025452 -2.01844788 0.12025452 0 0 Z " fill="#000000" transform="translate(38.01844787597656,59.87974548339844)"/>
<path d="M0 0 C0.88602402 0.00222061 1.77204803 0.00444122 2.68492126 0.00672913 C3.68588333 0.00680466 4.6868454 0.00688019 5.71813965 0.00695801 C6.80666733 0.01211929 7.89519501 0.01728058 9.01670837 0.02259827 C10.67928932 0.02472069 10.67928932 0.02472069 12.37545776 0.02688599 C15.93168281 0.03250418 19.48784596 0.04505977 23.04405212 0.05775452 C25.44834809 0.06276717 27.85264504 0.06733048 30.25694275 0.07142639 C36.16516716 0.08247952 42.07335522 0.09923535 47.98155212 0.12025452 C47.98155212 1.44025452 47.98155212 2.76025452 47.98155212 4.12025452 C46.98155212 5.12025452 46.98155212 5.12025452 45.00106812 5.24050903 C44.13280899 5.23828842 43.26454987 5.23606781 42.36997986 5.23377991 C41.38903854 5.23370438 40.40809723 5.23362885 39.39743042 5.23355103 C38.33077652 5.22838974 37.26412262 5.22322845 36.16514587 5.21791077 C34.53585899 5.21578835 34.53585899 5.21578835 32.87365723 5.21362305 C29.38876137 5.208005 25.90392871 5.19544944 22.41905212 5.18275452 C20.06293326 5.17774184 17.70681339 5.17317853 15.35069275 5.16908264 C9.56095748 5.15802971 3.77125932 5.14127403 -2.01844788 5.12025452 C-2.58094788 3.18275452 -2.58094788 3.18275452 -3.01844788 1.12025452 C-2.01844788 0.12025452 -2.01844788 0.12025452 0 0 Z " fill="#000000" transform="translate(38.01844787597656,83.87974548339844)"/>
<path d="M0 0 C16.83 0 33.66 0 51 0 C51 1.32 51 2.64 51 4 C34.5 4 18 4 1 4 C0.67 2.68 0.34 1.36 0 0 Z " fill="#000000" transform="translate(35,108)"/>
<path d="M0 0 C16.5 0 33 0 50 0 C50 1.32 50 2.64 50 4 C33.17 4 16.34 4 -1 4 C-0.67 2.68 -0.34 1.36 0 0 Z " fill="#000000" transform="translate(36,96)"/>
<path d="M0 0 C2.05078125 0.03255208 4.1015625 0.06510417 6.15234375 0.09765625 C6.15234375 1.41765625 6.15234375 2.73765625 6.15234375 4.09765625 C5.15234375 5.09765625 5.15234375 5.09765625 1.58984375 5.16015625 C0.45546875 5.13953125 -0.67890625 5.11890625 -1.84765625 5.09765625 C-2.41015625 3.16015625 -2.41015625 3.16015625 -2.84765625 1.09765625 C-1.84765625 0.09765625 -1.84765625 0.09765625 0 0 Z " fill="#000000" transform="translate(23.84765625,83.90234375)"/>
<path d="M0 0 C2.05078125 0.03255208 4.1015625 0.06510417 6.15234375 0.09765625 C6.48234375 1.08765625 6.81234375 2.07765625 7.15234375 3.09765625 C6.82234375 3.75765625 6.49234375 4.41765625 6.15234375 5.09765625 C3.51234375 5.09765625 0.87234375 5.09765625 -1.84765625 5.09765625 C-2.41015625 3.16015625 -2.41015625 3.16015625 -2.84765625 1.09765625 C-1.84765625 0.09765625 -1.84765625 0.09765625 0 0 Z " fill="#000000" transform="translate(23.84765625,71.90234375)"/>
<path d="M0 0 C1.134375 0.020625 2.26875 0.04125 3.4375 0.0625 C4.0975 1.3825 4.7575 2.7025 5.4375 4.0625 C4.4375 5.0625 4.4375 5.0625 2.58984375 5.16015625 C0.5390625 5.12760417 -1.51171875 5.09505208 -3.5625 5.0625 C-4.125 3.125 -4.125 3.125 -4.5625 1.0625 C-3.5625 0.0625 -3.5625 0.0625 0 0 Z " fill="#000000" transform="translate(25.5625,59.9375)"/>
<path d="M0 0 C2.97 0 5.94 0 9 0 C9 1.32 9 2.64 9 4 C6.03 4 3.06 4 0 4 C0 2.68 0 1.36 0 0 Z " fill="#000000" transform="translate(21,108)"/>
<path d="M0 0 C2.97 0 5.94 0 9 0 C9 1.32 9 2.64 9 4 C6.03 4 3.06 4 0 4 C0 2.68 0 1.36 0 0 Z " fill="#000000" transform="translate(21,96)"/>
</svg>
