<svg width="512" height="512" viewBox="0 0 512 512" fill="none" xmlns="http://www.w3.org/2000/svg">
  <rect x="150" y="90" width="230" height="270" rx="20" fill="#E0E7FF"/>
  <path d="M150 110C150 98.9543 158.954 90 170 90H360C371.046 90 380 98.9543 380 110V170H150V110Z" fill="#FF3B4E"/>
  
  <rect x="205" y="65" width="16" height="40" rx="8" fill="#D1D5DB"/>
  <rect x="310" y="65" width="16" height="40" rx="8" fill="#D1D5DB"/>
  
  <rect x="168" y="200" width="18" height="18" rx="6" fill="#3B5998"/>
  <rect x="208" y="200" width="18" height="18" rx="6" fill="#3B5998"/>
  <rect x="248" y="200" width="18" height="18" rx="6" fill="#3B5998"/>
  <rect x="288" y="200" width="18" height="18" rx="6" fill="#3B5998"/>
  <rect x="328" y="200" width="18" height="18" rx="6" fill="#3B5998"/>
  
  <rect x="168" y="248" width="18" height="18" rx="6" fill="#3B5998"/>
  <rect x="208" y="248" width="18" height="18" rx="6" fill="#3B5998"/>
  <rect x="248" y="248" width="18" height="18" rx="6" fill="#3B5998"/>
  <rect x="288" y="248" width="18" height="18" rx="6" fill="#3B5998"/>
  <rect x="328" y="248" width="18" height="18" rx="6" fill="#3B5998"/>
  
  <rect x="168" y="296" width="18" height="18" rx="6" fill="#3B5998"/>
  <rect x="208" y="296" width="18" height="18" rx="6" fill="#3B5998"/>
  
  <circle cx="340" cy="340" r="85" fill="#60A5FA"/>
  <circle cx="340" cy="340" r="65" fill="white"/>
  
  <rect x="336" y="295" width="8" height="50" rx="4" fill="#3B5998"/>
  <rect x="336" y="336" width="40" height="8" rx="4" fill="#3B5998"/>
  
  <circle cx="340" cy="340" r="10" fill="#FBBF24"/>
</svg>
