<?xml version="1.0" encoding="UTF-8"?>
<svg version="1.1" xmlns="http://www.w3.org/2000/svg" width="512" height="512">
<path d="M0 0 C0.92554688 0.40089844 1.85109375 0.80179687 2.8046875 1.21484375 C15.81772439 7.57390569 26.16477779 19.93166761 36.33813477 30.04296875 C37.65890122 31.3521395 38.98414187 32.65681118 40.3137207 33.95703125 C49.68975184 43.12746278 57.94519327 51.9654865 62.875 64.375 C63.26429688 65.33148438 63.65359375 66.28796875 64.0546875 67.2734375 C69.17480503 82.0413798 67.14517664 100.17835131 60.5625 114.0234375 C53.25634621 127.68735011 40.7261159 138.42340242 29.86128235 149.28588867 C28.45897944 150.69149888 27.0568868 152.09731888 25.65498418 153.50332832 C21.83238022 157.33585968 18.00671358 161.16532051 14.18047702 164.99422479 C10.04308896 169.13554298 5.90852654 173.27968076 1.77352905 177.42338562 C-8.18970125 187.4062908 -18.15770007 197.38442791 -28.12631413 207.3619566 C-32.35339278 211.59298662 -36.58007433 215.82441328 -40.806768 220.05582789 C-56.89872353 236.16565364 -72.99211486 252.27404379 -89.08928204 268.37866211 C-90.09748603 269.38734085 -91.10568945 270.39602016 -92.11389231 271.40470004 C-92.86380242 272.15496472 -92.86380242 272.15496472 -93.62886224 272.92038627 C-96.16151682 275.45424196 -98.69416421 277.98810483 -101.22680664 280.52197266 C-101.72940049 281.02480666 -102.23199434 281.52764066 -102.74981831 282.04571205 C-119.06919437 298.37299266 -135.38077169 314.7080358 -151.68786319 331.04758514 C-168.94847805 348.34249286 -186.21637112 365.63010117 -203.49249393 382.90951824 C-212.90303296 392.32212988 -222.31015611 401.73811273 -231.70895958 411.16244507 C-239.70455096 419.17970508 -247.70688989 427.19015117 -255.71819337 435.19171208 C-259.80526955 439.27423428 -263.88902007 443.35994501 -267.96413231 447.45441246 C-271.69402471 451.20186775 -275.43301626 454.93998603 -279.1794847 458.67086756 C-280.53339433 460.02239088 -281.88392566 461.37730867 -283.23071548 462.73592699 C-285.06205971 464.58235606 -286.90533118 466.41601129 -288.75205517 468.24703979 C-289.53162418 469.04194212 -289.53162418 469.04194212 -290.32694206 469.85290307 C-295.47504189 474.90601718 -301.44891827 477.85532245 -308.43022156 479.61993408 C-309.43213028 479.87785736 -310.434039 480.13578064 -311.46630859 480.40151978 C-312.53921143 480.66766083 -313.61211426 480.93380188 -314.7175293 481.20800781 C-315.86824417 481.50119904 -317.01895905 481.79439026 -318.20454407 482.09646606 C-321.33944121 482.89270294 -324.4763001 483.68047654 -327.61453223 484.46344852 C-330.24658406 485.12113222 -332.8772375 485.78431865 -335.50794822 486.44734263 C-341.72276117 488.01340447 -347.9400532 489.56932469 -354.15893555 491.11914062 C-360.54402785 492.71059023 -366.92435686 494.3201593 -373.30265111 495.9386189 C-378.80509282 497.33407403 -384.31046873 498.71749506 -389.81825763 500.09169269 C-393.096141 500.90968669 -396.37274535 501.73208498 -399.64652061 502.56638336 C-403.306014 503.49550921 -406.96991071 504.40483016 -410.63549805 505.30957031 C-411.69827972 505.58380829 -412.7610614 505.85804626 -413.85604858 506.14059448 C-421.39722617 507.9712753 -430.93091246 510.15370085 -438.33817577 507.00658035 C-442.29202661 504.50264076 -444.58822852 501.4844506 -446 497 C-446.58503356 489.50834197 -445.57811292 482.7467209 -443.69262695 475.52172852 C-443.44706558 474.53787674 -443.20150421 473.55402496 -442.94850159 472.5403595 C-442.14067245 469.31664916 -441.31463228 466.09791366 -440.48828125 462.87890625 C-439.91619352 460.6111219 -439.34526565 458.34304467 -438.7754364 456.07469177 C-437.27468043 450.11352229 -435.75845393 444.15639576 -434.23883057 438.20001221 C-432.71056337 432.19881697 -431.19661085 426.19401618 -429.68164062 420.18945312 C-427.96887518 413.40529408 -426.25458083 406.62154251 -424.53059387 399.84022522 C-424.268044 398.80628097 -424.00549414 397.77233671 -423.73498821 396.70706081 C-423.22046879 394.68742924 -422.70300587 392.66854494 -422.18239307 390.6504755 C-420.95890846 385.88917605 -419.79240579 381.12828618 -418.75057983 376.32369995 C-418.54740993 375.42145408 -418.34424002 374.5192082 -418.13491344 373.58962154 C-417.76224207 371.92275848 -417.40815628 370.2515587 -417.07844257 368.57566929 C-414.401863 356.82897585 -402.30224496 348.15086033 -394.06550598 339.91160583 C-392.63650753 338.47858757 -391.20771899 337.04535995 -389.77912158 335.61194187 C-385.86401778 331.68492579 -381.94580548 327.76102436 -378.02703178 323.83767092 C-373.79679947 319.60146262 -369.56938496 315.36244379 -365.34152222 311.12387085 C-355.13947409 300.89735158 -344.93252331 290.67573145 -334.72469452 280.45498309 C-331.84091359 277.56752786 -328.95729685 274.67990869 -326.07371688 271.79225278 C-308.15757985 253.85085883 -290.23983222 235.91107499 -272.31728077 217.97608852 C-268.17039978 213.8262865 -264.02354209 209.6764612 -259.87670898 205.52661133 C-259.36154788 205.01107932 -258.84638678 204.49554731 -258.31561474 203.96439311 C-241.60807927 187.24469861 -224.9099684 170.51563211 -208.21720722 153.78118804 C-191.04107213 136.56224156 -173.8568479 119.35141203 -156.66190898 102.15124202 C-154.23223775 99.7208304 -151.80265168 97.29033366 -149.37311363 94.85978889 C-148.89499499 94.38147964 -148.41687636 93.90317039 -147.92426927 93.41036692 C-140.24090157 85.72349043 -132.56594994 78.02826402 -124.89405771 70.32993633 C-117.18013665 62.58983671 -109.45679893 54.85923359 -101.72450659 47.13748651 C-97.53846948 42.95663452 -93.35656844 38.77185632 -89.18552589 34.57604027 C-85.36368106 30.73168605 -81.5303763 26.89915219 -77.6878024 23.07552064 C-76.3032219 21.69373759 -74.92281857 20.30775283 -73.54717097 18.91707628 C-53.94954278 -0.88141923 -27.37987125 -12.16459461 0 0 Z M-44.7734375 38.125 C-45.60575142 38.90366425 -45.60575142 38.90366425 -46.45487976 39.69805908 C-54.07276476 46.87915331 -61.43280751 54.32609776 -68.8125 61.75 C-70.29468466 63.23721562 -71.77710519 64.7241962 -73.25976562 66.2109375 C-76.84255959 69.80459702 -80.42217848 73.4013902 -84 77 C-80.0682924 81.70745077 -75.97742714 86.1641171 -71.62744141 90.48608398 C-71.02184387 91.09182755 -70.41624634 91.69757111 -69.79229736 92.32167053 C-67.81441659 94.29886146 -65.83303086 96.27249876 -63.8515625 98.24609375 C-62.46986361 99.62592516 -61.08838712 101.0059793 -59.7071228 102.38624573 C-56.08935087 106.0002185 -52.46858481 109.61117673 -48.84716797 113.22149658 C-45.14498223 116.91341203 -41.44566229 120.60819663 -37.74609375 124.30273438 C-30.50018369 131.53795303 -23.25110445 138.76998741 -16 146 C-12.23351355 142.80943189 -8.50063903 139.62072281 -4.97998047 136.15698242 C-4.27590057 135.46573776 -3.57182068 134.7744931 -2.84640503 134.06230164 C-2.11076324 133.33404678 -1.37512146 132.60579193 -0.6171875 131.85546875 C0.16010712 131.08624588 0.93740173 130.31702301 1.73825073 129.52449036 C3.3717281 127.90476943 5.00371391 126.28354301 6.63427734 124.66088867 C8.29388259 123.01283332 9.95795263 121.36926183 11.62646484 119.73022461 C14.05520312 117.3443014 16.47028288 114.94526768 18.8828125 112.54296875 C19.62250275 111.82078659 20.36219299 111.09860443 21.1242981 110.35453796 C27.98189089 103.4681933 33.00818874 96.25867344 33.3125 86.3125 C33.12411762 73.48366005 23.472698 65.33917105 15.03515625 56.796875 C14.39815292 56.15179993 13.7611496 55.50672485 13.10484314 54.84210205 C11.76934989 53.4929009 10.43238461 52.14515532 9.09399414 50.79882812 C7.73696441 49.43021936 6.3844288 48.05714017 5.03637695 46.6796875 C3.06661412 44.66711933 1.08380424 42.66825982 -0.90234375 40.671875 C-1.49530746 40.0614032 -2.08827118 39.4509314 -2.69920349 38.82196045 C-8.46935815 33.08104074 -15.24455748 28.94117722 -23.5625 28.6875 C-32.51482356 28.88155326 -38.3291352 32.02001167 -44.7734375 38.125 Z M-110.95399678 103.70559978 C-111.7612822 104.51364465 -112.56856762 105.32168951 -113.40031624 106.15422058 C-114.79616422 107.54409542 -114.79616422 107.54409542 -116.22021115 108.96204853 C-117.25986231 110.00740676 -118.29942115 111.05285681 -119.33889771 112.09838867 C-120.43739353 113.19601326 -121.53632836 114.29319864 -122.63566673 115.38997936 C-125.66848604 118.41830494 -128.69499767 121.45286815 -131.72056651 124.48843527 C-134.97939988 127.75587179 -138.24397599 131.01756132 -141.50787354 134.27993774 C-147.16638372 139.93739708 -152.82120829 145.59851904 -158.47357559 151.26211548 C-166.64604561 159.4508106 -174.82400518 167.634005 -183.00333332 175.81584918 C-196.27224861 189.08914629 -209.53668755 202.36690749 -222.79833984 215.64746094 C-235.68402318 228.55149051 -248.57179665 241.45342663 -261.46240234 254.35253906 C-262.25641772 255.14707989 -263.0504331 255.94162071 -263.86850955 256.76023853 C-267.85169686 260.74603583 -271.83492546 264.73179187 -275.8181746 268.71752739 C-308.88518803 301.80528846 -341.94494923 334.90028838 -375 368 C-373.6745976 370.74209153 -372.45404996 372.79480738 -370.2918396 374.94866943 C-369.74217026 375.5010881 -369.19250092 376.05350677 -368.62617493 376.62266541 C-368.02556747 377.21608231 -367.42496002 377.80949921 -366.80615234 378.42089844 C-366.1718782 379.05546463 -365.53760406 379.69003082 -364.8841095 380.34382629 C-362.78942522 382.43711882 -360.68774898 384.5232408 -358.5859375 386.609375 C-357.1310443 388.06053753 -355.67659244 389.51214267 -354.2225647 390.96417236 C-350.39649074 394.78261418 -346.56444838 398.59501149 -342.73114014 402.40618896 C-338.81974796 406.29711379 -334.91401915 410.19371428 -331.0078125 414.08984375 C-323.34407973 421.73213399 -315.67403095 429.36805174 -308 437 C-304.41781607 435.47857006 -302.12397265 433.37266712 -299.38482285 430.6309185 C-298.45724222 429.70731997 -297.52966159 428.78372144 -296.57397246 427.83213508 C-295.54806583 426.80052237 -294.52225201 425.76881736 -293.496521 424.73703003 C-292.40454832 423.64592927 -291.31213634 422.55526802 -290.21932244 421.46500981 C-287.21383154 418.46399915 -284.21462617 415.45677403 -281.21638823 412.44851947 C-277.98350311 409.20701193 -274.74485523 405.97127128 -271.50689697 402.73483276 C-265.8964411 397.1254265 -260.28966395 391.51236474 -254.68535614 385.89681625 C-246.58242456 377.77764303 -238.47398779 369.66398626 -230.36418894 361.55167307 C-217.20730265 348.39040758 -204.05489056 335.22468028 -190.90527344 322.05615234 C-178.13027055 309.26279649 -165.35317254 296.47153912 -152.57324219 283.68310547 C-151.39196828 282.50104339 -151.39196828 282.50104339 -150.18683025 281.29510127 C-146.23615238 277.34181335 -142.28543318 273.38856673 -138.33469343 269.43534064 C-105.55005322 236.62996092 -72.77266583 203.81734188 -40 171 C-41.94657187 166.74977551 -44.88080427 163.83817234 -48.16210938 160.57910156 C-48.79317093 159.94453537 -49.42423248 159.30996918 -50.07441711 158.65617371 C-52.1591948 156.56260156 -54.25119342 154.47641993 -56.34375 152.390625 C-57.79370941 150.93931862 -59.2433718 149.48771544 -60.69274902 148.03582764 C-63.72926007 144.99636871 -66.76935806 141.96055557 -69.81201172 138.92724609 C-73.71976921 135.03090318 -77.61845357 131.12562439 -81.51451874 127.21759415 C-84.50480078 124.22010184 -87.49980924 121.22736879 -90.49629211 118.23607635 C-91.93633536 116.79737086 -93.37488453 115.35716835 -94.81193542 113.91547394 C-96.81580052 111.90655515 -98.82592034 109.904117 -100.83789062 107.90332031 C-101.43535599 107.30180649 -102.03282135 106.70029266 -102.64839172 106.08055115 C-106.45010806 101.69300016 -106.45010806 101.69300016 -110.95399678 103.70559978 Z M-390 403 C-392.46310812 410.04021878 -394.37156299 417.12309695 -396.13671875 424.3671875 C-396.42102249 425.52372833 -396.70532623 426.68026917 -396.99824524 427.87185669 C-397.59416411 430.30019095 -398.18822536 432.72898175 -398.78051758 435.15820312 C-399.69005399 438.88546619 -400.60732851 442.61076634 -401.52539062 446.3359375 C-402.10462851 448.70040774 -402.68342041 451.06498729 -403.26171875 453.4296875 C-403.53666672 454.54528046 -403.81161469 455.66087341 -404.09489441 456.81027222 C-404.34548111 457.84209625 -404.59606781 458.87392029 -404.85424805 459.93701172 C-405.07614304 460.84474335 -405.29803802 461.75247498 -405.5266571 462.68771362 C-406.10027441 465.09646891 -406.10027441 465.09646891 -406 468 C-398.79897149 467.31621135 -391.96986386 465.62065067 -384.96875 463.83984375 C-383.1212616 463.37584923 -383.1212616 463.37584923 -381.2364502 462.90248108 C-377.9871613 462.08553064 -374.73895573 461.26451904 -371.49121094 460.44146729 C-368.16688699 459.60009459 -364.84119796 458.76415389 -361.515625 457.92773438 C-355.00915649 456.29012275 -348.5040632 454.64713724 -342 453 C-341.68096629 449.92067865 -341.68096629 449.92067865 -343.77757263 447.85493469 C-344.60950638 447.02664658 -345.44144012 446.19835846 -346.29858398 445.3449707 C-346.75539551 444.88611481 -347.21220703 444.42725891 -347.68286133 443.95449829 C-349.19678151 442.43756647 -350.72118154 440.93165649 -352.24609375 439.42578125 C-353.29803132 438.37690029 -354.34938003 437.32742844 -355.40016174 436.27738953 C-357.60412833 434.07802817 -359.81291909 431.88367365 -362.02563477 429.69311523 C-364.86856523 426.87850203 -367.70271387 424.05525079 -370.53375149 421.22868061 C-372.7044588 419.06212022 -374.87798336 416.89840645 -377.05256844 414.73573875 C-378.0988781 413.69514439 -379.14470879 412.6540682 -380.19006157 411.61251259 C-381.64811073 410.16130173 -383.10949244 408.71353984 -384.57202148 407.2668457 C-385.40475082 406.44094437 -386.23748016 405.61504303 -387.09544373 404.76411438 C-388.68959941 402.88674333 -388.68959941 402.88674333 -390 403 Z " fill="#000000" transform="translate(446,4)"/>
</svg>
