<?xml version="1.0" encoding="UTF-8"?>
<svg version="1.1" xmlns="http://www.w3.org/2000/svg" width="512" height="512">
<path d="M0 0 C0.09704224 0.84425537 0.09704224 0.84425537 0.19604492 1.70556641 C3.05443971 25.78478222 10.61383766 43.39477107 26.68310547 61.50195312 C30.25029265 65.55984348 33.61762562 69.78820859 37 74 C37.81339844 75.00546875 38.62679687 76.0109375 39.46484375 77.046875 C49.2463347 89.31198452 56.88932001 102.13826801 62 117 C62.37898437 118.09828125 62.75796875 119.1965625 63.1484375 120.328125 C66.95526644 132.86489999 67.77139619 146.01048718 69 159 C79.09516288 140.98694328 83.06026545 123.44732764 84 103 C90.98935219 104.09698353 95.58181323 110.99746909 99.5625 116.37109375 C113.52460758 136.07199916 119.22045393 157.27917311 119.25 181.3125 C119.25167175 182.02698303 119.25334351 182.74146606 119.25506592 183.4776001 C119.25662511 194.59117876 118.45093986 205.1441298 116 216 C115.60098028 218.04104632 115.20461516 220.08261598 114.8125 222.125 C114.544375 223.40375 114.27625 224.6825 114 226 C129.26285089 214.27574303 138.19997483 197.01060447 144 179 C157.4172233 191.35857446 161.35576561 212.38064212 162.12548828 229.84765625 C162.89620252 254.6034625 161.90820224 282.27539328 154 306 C170.89884996 296.41151773 180.43668649 283.72529914 186 265 C189 266 189 266 190.68359375 269.140625 C191.28224797 270.50434818 191.86597227 271.87468773 192.4375 273.25 C192.74534424 273.98089844 193.05318848 274.71179688 193.37036133 275.46484375 C200.87213373 293.5877026 204.45992805 313.3930402 205 333 C205.03996094 334.23105469 205.07992188 335.46210938 205.12109375 336.73046875 C205.72242397 372.56267533 195.73664164 409.50811336 172 437 C171.54399414 437.53818359 171.08798828 438.07636719 170.61816406 438.63085938 C137.60982442 477.28029482 85.59755485 491.52878139 36.72949219 495.484375 C-6.79143112 498.40920603 -53.26783909 495.91038612 -92 474 C-92.66870117 473.62504395 -93.33740234 473.25008789 -94.02636719 472.86376953 C-104.24333582 467.04799388 -112.66362122 460.25384038 -121 452 C-122.01126953 451.07960938 -122.01126953 451.07960938 -123.04296875 450.140625 C-140.33309194 434.15616329 -151.1780213 408.01561846 -154 385 C-154.16435547 383.72382812 -154.16435547 383.72382812 -154.33203125 382.421875 C-156.91593326 358.85668865 -152.5040621 338.05222373 -144.9362793 315.90307617 C-136.28645458 290.57991061 -135.30389834 261.46240053 -146.62890625 236.625 C-148.54175881 232.96278656 -150.63048101 229.43668195 -152.86328125 225.9609375 C-154 224 -154 224 -154 222 C-141.57852817 221.49557475 -131.25769057 227.14052978 -122 235 C-120.92298828 235.90878906 -120.92298828 235.90878906 -119.82421875 236.8359375 C-112.52514424 243.55392064 -106.82572218 252.49529813 -104 262 C-103.34 262 -102.68 262 -102 262 C-100.68517844 255.72931256 -99.52001389 249.43933208 -98.4375 243.125 C-98.31076904 242.40715332 -98.18403809 241.68930664 -98.0534668 240.94970703 C-94.33881332 218.93640081 -93.93207707 194.80579219 -99 173 C-99.26538574 171.85700439 -99.26538574 171.85700439 -99.53613281 170.69091797 C-101.77883751 161.3656821 -104.73234916 152.61861792 -108.765625 143.91796875 C-109.89699751 141.24349007 -110.55606672 138.8591417 -111 136 C-91.79412357 140.99878976 -75.51838629 149.60306101 -64.40234375 166.5625 C-62.28199184 170.24801418 -60.54016525 174.03957508 -59 178 C-50.61625505 174.40696645 -47.04577944 167.79375884 -43.5546875 159.61328125 C-37.09693334 141.72878246 -36.07315727 122.61830255 -35.76098633 103.76269531 C-35.10267333 68.37563755 -30.14063649 29.12554173 -4.625 2.3125 C-2 0 -2 0 0 0 Z " fill="#E22932" transform="translate(231,8)"/>
<path d="M0 0 C-0.15984375 1.10214844 -0.3196875 2.20429688 -0.484375 3.33984375 C-2.96321583 23.34197956 -1.68688987 45.59451457 10.625 62.3125 C16.27969321 68.97581022 24.84361543 75.32950267 33.76171875 76.30078125 C44.42378606 76.34348646 53.11783027 74.57342114 61 67 C62.561739 65.05444379 63.75694783 63.17534129 65 61 C74.64619512 65.00526797 79.28291613 78.84659448 83.15576172 87.90869141 C85.27135005 93.1493304 86.69896189 98.50996922 88 104 C88.17515137 104.72396973 88.35030273 105.44793945 88.53076172 106.19384766 C89.09552482 108.5431635 89.64520215 110.89540135 90.1875 113.25 C90.35475586 113.97050537 90.52201172 114.69101074 90.69433594 115.43334961 C92.84956571 125.19298544 93.16859499 134.84305149 93.125 144.8125 C93.12016602 145.96886963 93.11533203 147.12523926 93.11035156 148.31665039 C92.85476353 184.50536043 82.16466126 217.52143144 56.5625 243.75 C39.98796362 260 39.98796362 260 32 260 C32 260.66 32 261.32 32 262 C22.05572791 263.25368424 12.11698547 264.47964695 2.09619141 264.90771484 C0.61618994 264.97287214 -0.86331381 265.04985156 -2.34228516 265.13525391 C-23.00759492 266.24977836 -41.10287704 261.221156 -59 251 C-59.95648438 250.49210938 -60.91296875 249.98421875 -61.8984375 249.4609375 C-75.6787312 241.58071089 -86.44087568 228.77052658 -94 215 C-94.34611328 214.38044434 -94.69222656 213.76088867 -95.04882812 213.12255859 C-100.71809223 202.84114455 -104.65043986 192.23136461 -108 181 C-108.31839844 179.97648438 -108.63679687 178.95296875 -108.96484375 177.8984375 C-115.48078115 154.88194219 -114.76496827 128.05987309 -109 105 C-108.01 105 -107.02 105 -106 105 C-105.23816406 106.57587891 -105.23816406 106.57587891 -104.4609375 108.18359375 C-97.36260215 122.72504569 -90.06788779 136.83446877 -74.18359375 143.11328125 C-67.41656671 144.9980851 -59.0733396 145.40623899 -52.5625 142.4375 C-41.88553855 135.88987621 -37.4651634 126.02652535 -34.6177063 114.22042847 C-33.65075737 109.17921412 -33.55917923 104.24921118 -33.55859375 99.12890625 C-33.54538589 98.04471909 -33.53217804 96.96053192 -33.51856995 95.8434906 C-33.47810585 92.41646711 -33.45613796 88.98970622 -33.4375 85.5625 C-33.19647755 51.14498092 -33.19647755 51.14498092 -28.25 38.875 C-27.98614502 38.20178711 -27.72229004 37.52857422 -27.45043945 36.83496094 C-23.71172294 27.5242791 -11.55209086 0 0 0 Z " fill="#FEAE44" transform="translate(258,239)"/>
</svg>
