<?xml version="1.0" encoding="UTF-8"?>
<svg version="1.1" xmlns="http://www.w3.org/2000/svg" width="512" height="512">
<path d="M0 0 C24.93430317 9.95861529 45.26148937 4.01963717 69.42602539 -4.94042969 C85.1416072 -10.73327135 103.66003853 -14.36132424 119.77856445 -7.72021484 C120.63063477 -7.30771484 121.48270508 -6.89521484 122.3605957 -6.47021484 C123.26422852 -6.05771484 124.16786133 -5.64521484 125.09887695 -5.22021484 C135.85130775 0.13318776 144.89348634 8.19135641 152.3605957 17.52978516 C153.02446289 18.29548828 153.68833008 19.06119141 154.37231445 19.85009766 C155.02844727 20.63126953 155.68458008 21.41244141 156.3605957 22.21728516 C156.9587207 22.92240234 157.5568457 23.62751953 158.1730957 24.35400391 C159.79040977 27.31730632 159.29916886 28.28134156 158.3605957 31.52978516 C157.08240094 34.42955489 155.62691244 37.22877169 154.16137695 40.03759766 C153.52085892 41.28307373 153.52085892 41.28307373 152.86740112 42.55371094 C151.47522103 45.25717098 150.07430092 47.95599345 148.6730957 50.65478516 C147.71139898 52.51763783 146.75021993 54.38075783 145.78955078 56.24414062 C143.41772173 60.84123473 141.0388449 65.43463683 138.65759277 70.02685547 C136.8121627 73.58814471 134.97311239 77.15271365 133.1340332 80.71728516 C127.29170371 92.03210939 121.40577434 103.32179867 115.3605957 114.52978516 C116.27711914 114.96097656 116.27711914 114.96097656 117.2121582 115.40087891 C123.86229061 118.8952212 128.73998869 126.54144383 131.51293945 133.36572266 C134.1338474 143.14883525 133.03953855 153.58558648 128.3605957 162.52978516 C123.72702596 169.84657003 123.72702596 169.84657003 120.3605957 171.52978516 C121.22040039 172.18462891 122.08020508 172.83947266 122.96606445 173.51416016 C174.89033802 213.44223817 205.55196139 274.57987317 216.3605957 338.52978516 C216.58618164 339.79048828 216.81176758 341.05119141 217.04418945 342.35009766 C222.53075423 379.20467761 218.74270157 419.56820639 196.33325195 450.31103516 C179.90272907 471.46570477 156.38202579 481.8982538 130.3605957 485.52978516 C123.41929133 486.15512374 116.46028346 486.07977808 109.49731445 486.04736328 C107.4972788 486.05280168 105.49724716 486.05993384 103.4972229 486.06860352 C98.12936452 486.0866358 92.76181815 486.07985354 87.39395523 486.06708717 C81.73658753 486.05685408 76.07924391 486.06638112 70.421875 486.07263184 C60.92711668 486.07987855 51.43248341 486.07039914 41.93774414 486.05126953 C31.0108586 486.02950665 20.08427177 486.03656013 9.15739346 486.05857515 C-0.2785142 486.07681445 -9.71433272 486.07924604 -19.15025234 486.06882048 C-24.76213401 486.06263217 -30.37387598 486.06161974 -35.98574829 486.07496643 C-41.26544579 486.08664943 -46.54476379 486.07827558 -51.82442093 486.0553894 C-53.74464925 486.05016801 -55.66491036 486.05150086 -57.58512497 486.06044006 C-86.13115918 486.1809252 -112.8192745 479.11157767 -134.07104492 459.08935547 C-156.83731374 436.45066848 -163.85848009 404.30232967 -163.9519043 373.21728516 C-164.120224 306.60693019 -135.50055963 237.88946342 -88.6394043 190.52978516 C-81.45235007 183.50423777 -73.77059883 177.40467964 -65.6394043 171.52978516 C-66.40897461 170.78470703 -67.17854492 170.03962891 -67.97143555 169.27197266 C-70.08650983 167.09806029 -71.73601269 165.20232587 -73.3269043 162.65478516 C-73.72264648 162.03861328 -74.11838867 161.42244141 -74.52612305 160.78759766 C-78.70552704 152.31147306 -79.18732461 142.14579356 -76.6940918 133.10009766 C-73.5689951 125.21856448 -69.65513217 119.45975609 -62.6394043 114.52978516 C-61.9794043 114.52978516 -61.3194043 114.52978516 -60.6394043 114.52978516 C-66.78899962 100.94096259 -73.07871364 87.42205606 -79.4659729 73.94360352 C-80.24853068 72.29215443 -81.03057386 70.64046139 -81.81210327 68.98852539 C-85.58724733 61.00912031 -89.37273687 53.03723679 -93.27612305 45.11962891 C-93.80012695 44.05043213 -94.32413086 42.98123535 -94.86401367 41.87963867 C-95.80944575 39.95706025 -96.76453458 38.03918714 -97.73120117 36.12719727 C-98.13790039 35.29841064 -98.54459961 34.46962402 -98.96362305 33.61572266 C-99.31513428 32.91495605 -99.66664551 32.21418945 -100.02880859 31.4921875 C-100.77845056 29.08290237 -100.51234218 27.87288631 -99.6394043 25.52978516 C-97.20427304 22.01372281 -94.39328478 18.7997168 -91.6394043 15.52978516 C-91.01678711 14.75892578 -90.39416992 13.98806641 -89.75268555 13.19384766 C-64.4341471 -17.06100961 -32.94156138 -13.31973312 0 0 Z M-51.6394043 15.52978516 C-52.55012695 15.84882812 -52.55012695 15.84882812 -53.47924805 16.17431641 C-60.70084327 19.17223835 -66.10505348 25.1799127 -71.6394043 30.52978516 C-66.33149167 42.59194639 -60.76066076 54.50826552 -54.99960327 66.36035156 C-48.74643735 79.23058928 -42.70825573 92.1954163 -36.72412109 105.19262695 C-36.04883557 106.64761419 -35.35676033 108.09507309 -34.6394043 109.52978516 C6.2805957 109.52978516 47.2005957 109.52978516 89.3605957 109.52978516 C95.87880353 97.14519028 102.36855575 84.75219203 108.75262451 72.29898071 C112.57943601 64.83471235 116.42107993 57.38196695 120.38012695 49.98681641 C120.99138428 48.83777832 121.6026416 47.68874023 122.23242188 46.50488281 C123.37490717 44.36246436 124.52696882 42.22511675 125.68994141 40.09375 C126.19227295 39.14838379 126.69460449 38.20301758 127.2121582 37.22900391 C127.65382324 36.41262451 128.09548828 35.59624512 128.55053711 34.75512695 C129.49410908 32.16300564 129.3816446 31.06059299 128.3605957 28.52978516 C122.05908563 21.1356142 113.43519541 15.66152876 103.88012695 13.88134766 C90.94399091 13.10383896 79.31719433 18.14670799 67.3605957 22.52978516 C34.11735101 34.3842532 7.64367474 30.83121648 -24.5769043 17.71728516 C-33.52638844 14.24332087 -42.44836209 12.10261688 -51.6394043 15.52978516 Z M-49.95852661 136.94224548 C-52.66120785 141.10274746 -53.06532234 143.50395221 -52.6394043 148.52978516 C-50.84378025 151.28307537 -49.58685508 153.05605977 -46.6394043 154.52978516 C-44.69970049 154.63427399 -42.75637893 154.67369132 -40.81388855 154.6836853 C-39.57307022 154.69228577 -38.33225189 154.70088623 -37.05383301 154.70974731 C-35.671143 154.71418266 -34.28845254 154.71848101 -32.90576172 154.72265625 C-31.45546776 154.73055634 -30.00517577 154.73882524 -28.55488586 154.74743652 C-23.78490072 154.7736663 -19.01490674 154.78896459 -14.24487305 154.80322266 C-12.60371711 154.80858185 -10.96256123 154.81395935 -9.32140541 154.81935501 C-2.49554168 154.84098469 4.33031966 154.85972208 11.15620899 154.8709774 C20.94348451 154.88722119 30.73036331 154.92040801 40.51748925 154.97737825 C47.39653178 155.01605767 54.2754681 155.03560767 61.15461653 155.04089797 C65.26461768 155.04455407 69.37419579 155.05660218 73.48407936 155.0890007 C77.35099237 155.11904681 81.21722563 155.12540601 85.08423042 155.11361694 C86.50282066 155.11339592 87.92144211 155.12172534 89.33992386 155.13927078 C97.6313266 155.64683187 97.6313266 155.64683187 104.68070984 152.11831665 C107.19378228 148.24593026 107.72574599 146.18545134 107.3605957 141.52978516 C105.69297249 138.03571746 104.62053549 136.70307834 101.3605957 134.52978516 C98.59661577 134.21859062 98.59661577 134.21859062 95.41482544 134.25563049 C94.17263245 134.24565536 92.93043945 134.23568024 91.65060425 134.22540283 C90.27154554 134.22450702 88.89248666 134.22384345 87.51342773 134.22338867 C86.06298393 134.21576827 84.61254418 134.20734098 83.16210938 134.19816589 C79.2199205 134.17620225 75.2778092 134.16741953 71.33556604 134.16233945 C68.87294117 134.15869811 66.41033669 134.15245922 63.94771957 134.14533806 C55.35730851 134.12083719 46.76695789 134.10779027 38.17651367 134.10424805 C30.1676269 134.10061214 22.15912321 134.0707147 14.15035355 134.02884346 C7.27552383 133.99416004 0.40082118 133.97869995 -6.47409546 133.97800201 C-10.5807082 133.97720853 -14.68693083 133.96843775 -18.79345322 133.94000435 C-22.65630177 133.91385661 -26.51843586 133.91159937 -30.3813324 133.92765999 C-31.79830099 133.92947715 -33.21531036 133.92275943 -34.6321907 133.90684128 C-42.91675951 133.41092799 -42.91675951 133.41092799 -49.95852661 136.94224548 Z M-67.6394043 205.52978516 C-68.1742041 206.02075684 -68.70900391 206.51172852 -69.26000977 207.01757812 C-88.80787222 225.15616242 -103.63795201 248.35313962 -114.6394043 272.52978516 C-114.9998584 273.31788574 -115.3603125 274.10598633 -115.73168945 274.91796875 C-124.59061056 294.47402766 -131.39616759 314.46898777 -135.6394043 335.52978516 C-135.887146 336.74939941 -135.887146 336.74939941 -136.13989258 337.99365234 C-141.96399986 368.02364085 -141.4505351 402.58148369 -125.6394043 429.52978516 C-114.40544589 445.91758918 -98.6478824 455.84428959 -79.2019043 459.77978516 C-66.66948528 461.64100933 -54.0126395 461.67964281 -41.37304688 461.67504883 C-39.69887214 461.67804978 -38.02469808 461.68145443 -36.3505249 461.68522644 C-31.848144 461.6939752 -27.34578215 461.69640066 -22.84339356 461.69704223 C-20.01810339 461.69775792 -17.19281791 461.69990194 -14.36752892 461.70253944 C-4.47597323 461.71176253 5.41556907 461.71587813 15.30712891 461.71508789 C24.47121324 461.71448785 33.63523858 461.72503303 42.799308 461.74083155 C50.71493463 461.75398278 58.63054215 461.75926863 66.54617959 461.75863248 C71.25266721 461.75837972 75.95910229 461.76110632 80.66557884 461.77181053 C130.11783266 462.85153568 130.11783266 462.85153568 172.26293945 439.72900391 C191.34343967 419.52357624 194.28370739 390.86978535 193.7121582 364.41650391 C193.38738289 353.26198645 191.673405 342.42868517 189.3605957 331.52978516 C189.17867676 330.65854004 188.99675781 329.78729492 188.80932617 328.88964844 C179.48913022 285.50367821 158.62629006 243.97907827 128.3605957 211.52978516 C127.61293945 210.71638672 126.8652832 209.90298828 126.0949707 209.06494141 C110.91156602 193.1525322 90.78604661 180.48633672 68.31136513 179.43381691 C66.15904161 179.39423197 64.00864296 179.3832131 61.85595703 179.38452148 C61.04661713 179.38116287 60.23727722 179.37780426 59.40341187 179.37434387 C56.74980091 179.36491032 54.0962536 179.36289443 51.44262695 179.36181641 C49.57948278 179.35859795 47.71633885 179.35523345 45.85319519 179.35173035 C41.95388199 179.3457576 38.05459089 179.34388848 34.15527344 179.34448242 C29.19068228 179.3445838 24.22623492 179.33094855 19.26167774 179.31371021 C15.41376614 179.30251848 11.56588847 179.30056542 7.71796227 179.30109215 C5.88937575 179.29992216 4.06078806 179.29555643 2.23221779 179.28775978 C-25.58466805 179.18027734 -47.19051521 186.57034475 -67.6394043 205.52978516 Z " fill="#000000" transform="translate(228.639404296875,18.47021484375)"/>
<path d="M0 0 C8.25 0 16.5 0 25 0 C25 7.26 25 14.52 25 22 C28.3 22.99 31.6 23.98 35 25 C46.27523812 30.48141299 54.57032454 39.25328977 59 51 C60.30069139 55.73288228 61 60.08816785 61 65 C52.75 65 44.5 65 36 65 C34.68 61.7 33.36 58.4 32 55 C26.18382092 49.07807221 21.61583285 46.71792539 13.1875 46.625 C6.31510201 46.74001921 1.54135691 47.67713297 -3.51953125 52.42578125 C-6.69591184 55.96831522 -9.04816668 59.32193277 -8.9609375 64.171875 C-8.60243482 68.23490539 -8.09402391 71.44869572 -6 75 C1.75199765 79.83108945 10.57805244 81.25573779 19.3828125 83.26757812 C33.36648316 86.58149574 47.83782392 91.28444379 56 104 C61.82958247 116.60903301 62.47179558 128.90644702 58 142 C52.52184025 154.02736996 43.31985923 162.34472256 31 167 C29.02 167.33 27.04 167.66 25 168 C25 175.26 25 182.52 25 190 C16.75 190 8.5 190 0 190 C0 182.74 0 175.48 0 168 C-3.3 167.01 -6.6 166.02 -10 165 C-21.1704315 159.44754211 -28.43283279 150.4329416 -33 139 C-34.3764929 134.54625134 -35 130.66750349 -35 126 C-26.75 126 -18.5 126 -10 126 C-8.68 128.97 -7.36 131.94 -6 135 C-2.09026362 139.73283877 2.830382 143.09270324 9 144 C16.42702161 144.50352689 22.58276592 143.22863092 28.875 139.125 C33.09693909 134.90306091 34.58629707 131.16013795 35.06640625 125.28125 C34.95670106 121.51255404 33.89584958 119.26870617 32 116 C25.62211931 110.31200044 15.66677202 109.13924084 7.54785156 107.19116211 C-7.25883881 103.62520366 -21.31663735 99.95525581 -29.75 86.296875 C-35.80394686 75.17274765 -36.41383061 63.14755643 -33.09375 51.05078125 C-29.33127855 40.55617337 -21.80270339 31.72677591 -12.01953125 26.3671875 C-8.39912507 24.69328768 -4.78273363 23.26091121 -1 22 C-0.67 14.74 -0.34 7.48 0 0 Z " fill="#000000" transform="translate(243,251)"/>
</svg>
