<?xml version="1.0" encoding="UTF-8"?>
<svg version="1.1" xmlns="http://www.w3.org/2000/svg" width="512" height="512">
<path d="M0 0 C0.79535156 0.45117188 1.59070313 0.90234375 2.41015625 1.3671875 C10.92676798 6.53110593 18.88712782 12.6180509 26.92041016 18.49316406 C28.71832325 19.79590175 30.52887932 21.07393026 32.35546875 22.3359375 C42.11140437 29.14490774 49.71697314 36.9084133 52 49 C53.45795138 68.66151575 46.10366206 79.93698274 34.80029297 95.51318359 C32.16625726 99.15168207 29.58397339 102.82587875 27 106.5 C26.0210017 107.88553565 25.04183291 109.27095084 24.0625 110.65625 C20.69438409 115.42774754 17.34687684 120.21359151 14 125 C8.17881568 133.32405468 2.33145779 141.62918378 -3.53222656 149.92333984 C-6.02320986 153.44767516 -8.51144903 156.97394701 -11 160.5 C-11.99998722 161.91667568 -12.99998722 163.33334236 -14 164.75 C-14.495 165.45125 -14.99 166.1525 -15.5 166.875 C-20 173.25 -20 173.25 -21.49951172 175.37426758 C-22.50119043 176.79333958 -23.5028179 178.21244775 -24.50439453 179.6315918 C-26.97829495 183.13675274 -29.45303366 186.64131515 -31.9296875 190.14453125 C-37.30505144 197.75009937 -42.66255014 205.36776805 -48 213 C-53.82123683 221.32401819 -59.668542 229.62918349 -65.53222656 237.92333984 C-68.02320984 241.44767513 -70.51148065 244.97392472 -73 248.5 C-75.97526452 252.71576254 -78.95099792 256.93118778 -81.9296875 261.14453125 C-87.30505144 268.75009937 -92.66255014 276.36776805 -98 284 C-103.82123683 292.32401819 -109.668542 300.62918349 -115.53222656 308.92333984 C-118.02320984 312.44767513 -120.51148065 315.97392472 -123 319.5 C-125.97526452 323.71576254 -128.95099792 327.93118778 -131.9296875 332.14453125 C-137.30505144 339.75009937 -142.66255014 347.36776805 -148 355 C-153.33042476 362.62218648 -158.67974842 370.23059668 -164.05078125 377.82421875 C-166.09687402 380.71777317 -168.13480548 383.61687814 -170.16796875 386.51953125 C-172.67169983 390.092206 -175.1901494 393.65392943 -177.72363281 397.20556641 C-178.82177539 398.74943556 -179.90814132 400.30166923 -180.9921875 401.85546875 C-187.40495826 410.67672253 -196.92690939 415.21624674 -206.27185059 420.48931885 C-209.37943685 422.24330756 -212.48034649 424.00904066 -215.58203125 425.7734375 C-216.2095932 426.13009491 -216.83715515 426.48675232 -217.48373413 426.85421753 C-223.42984981 430.23672226 -229.34467486 433.67179457 -235.25 437.125 C-236.22114746 437.6926709 -237.19229492 438.2603418 -238.19287109 438.84521484 C-241.1290902 440.56260759 -244.06458465 442.28123387 -247 444 C-254.99372116 448.67749239 -262.99289815 453.345449 -271 458 C-271.99918457 458.58185059 -272.99836914 459.16370117 -274.02783203 459.76318359 C-276.93207923 461.45178714 -279.840344 463.13323747 -282.75 464.8125 C-283.62551514 465.32248535 -284.50103027 465.8324707 -285.40307617 466.35791016 C-286.61894409 467.0566626 -286.61894409 467.0566626 -287.859375 467.76953125 C-288.91850098 468.38211792 -288.91850098 468.38211792 -289.99902344 469.00708008 C-292.05185287 470.02573031 -293.7297929 470.67925875 -296 471 C-302.69072165 468.6185567 -302.69072165 468.6185567 -304 466 C-304.59925651 458.71958876 -303.48037194 451.75000945 -302.13574219 444.61865234 C-301.83814247 442.98250725 -301.83814247 442.98250725 -301.53453064 441.31330872 C-300.88112392 437.73576886 -300.21460775 434.16082904 -299.546875 430.5859375 C-299.08520009 428.08598677 -298.6239643 425.5859549 -298.16314697 423.08584595 C-297.19731405 417.85817195 -296.2248454 412.63179013 -295.24755859 407.40625 C-294.121419 401.38392497 -293.01077563 395.35888836 -291.90773845 389.33229291 C-290.84115239 383.50822912 -289.76093407 377.68675068 -288.67533112 371.86619949 C-288.21709513 369.40061262 -287.76262179 366.93432328 -287.31203461 364.46732712 C-286.68028363 361.01677905 -286.03304163 357.56948052 -285.38183594 354.12255859 C-285.19985153 353.1103978 -285.01786713 352.098237 -284.83036804 351.05540466 C-283.36201607 343.4205669 -280.83343474 337.14173354 -276.15234375 330.84375 C-275.37685181 329.78788696 -275.37685181 329.78788696 -274.58569336 328.71069336 C-274.04178955 327.98116455 -273.49788574 327.25163574 -272.9375 326.5 C-271.76933036 324.90865429 -270.60269017 323.31618484 -269.4375 321.72265625 C-268.85742188 320.93004395 -268.27734375 320.13743164 -267.6796875 319.32080078 C-265.20455609 315.90094625 -262.81473543 312.42582513 -260.4375 308.9375 C-255.21054426 301.28123446 -249.87526902 293.70525756 -244.51611328 286.14111328 C-242.00656081 282.59702711 -239.50356599 279.04831628 -237 275.5 C-234.02479257 271.28419722 -231.04900204 267.06881217 -228.0703125 262.85546875 C-222.69494856 255.24990063 -217.33744986 247.63223195 -212 240 C-206.17876317 231.67598181 -200.331458 223.37081651 -194.46777344 215.07666016 C-191.97679016 211.55232487 -189.48851935 208.02607528 -187 204.5 C-184.02473548 200.28423746 -181.04900208 196.06881222 -178.0703125 191.85546875 C-172.69494856 184.24990063 -167.33744986 176.63223195 -162 169 C-156.17876317 160.67598181 -150.331458 152.37081651 -144.46777344 144.07666016 C-141.97679016 140.55232487 -139.48851935 137.02607528 -137 133.5 C-134.02473548 129.28423746 -131.04900208 125.06881222 -128.0703125 120.85546875 C-122.69494856 113.24990063 -117.33744986 105.63223195 -112 98 C-106.17876317 89.67598181 -100.331458 81.37081651 -94.46777344 73.07666016 C-91.97679016 69.55232487 -89.48851935 66.02607528 -87 62.5 C-84.02473548 58.28423746 -81.04900208 54.06881222 -78.0703125 49.85546875 C-77.08850834 48.46616939 -76.10673763 47.07684638 -75.125 45.6875 C-74.63878174 44.99978516 -74.15256348 44.31207031 -73.65161133 43.60351562 C-70.88008469 39.67887865 -68.12279261 35.74480006 -65.37890625 31.80078125 C-64.76450684 30.9188208 -64.15010742 30.03686035 -63.51708984 29.12817383 C-62.33691197 27.43286894 -61.15870317 25.73619078 -59.98291016 24.0378418 C-46.13750051 4.1582464 -25.48719621 -14.75342033 0 0 Z M-34.39355469 18.34741211 C-37.7331865 21.78296951 -40.32022825 25.7947037 -43 29.75 C-43.59039062 30.6059375 -44.18078125 31.461875 -44.7890625 32.34375 C-48.58228572 37.85812737 -52.30150003 43.4217679 -56 49 C-52.11140709 53.15235405 -47.92752048 56.34272012 -43.25 59.5625 C-41.7199517 60.62876221 -40.19000658 61.69517251 -38.66015625 62.76171875 C-37.8830127 63.30103027 -37.10586914 63.8403418 -36.30517578 64.39599609 C-32.75156399 66.86869568 -29.22067761 69.37323911 -25.6875 71.875 C-19.29929848 76.38586168 -12.90257867 80.88457093 -6.5 85.375 C-5.68748779 85.94589355 -4.87497559 86.51678711 -4.0378418 87.10498047 C1.25751441 90.81471541 6.60481416 94.43705021 12 98 C14.54316921 94.35521271 17.08425654 90.70897858 19.625 87.0625 C20.33785156 86.04091797 21.05070312 85.01933594 21.78515625 83.96679688 C25.03253306 79.30427879 28.27228351 74.63652485 31.4609375 69.93359375 C31.93063965 69.24193115 32.4003418 68.55026855 32.88427734 67.83764648 C35.99076389 62.7211204 35.63121746 56.76903403 35 51 C31.42262189 41.07026823 20.52903943 34.75344593 12.25 29.0625 C11.37037598 28.45567383 10.49075195 27.84884766 9.58447266 27.22363281 C7.84375359 26.02430715 6.10177112 24.82681267 4.35839844 23.63134766 C2.34743843 22.24032956 0.36014667 20.82483194 -1.6171875 19.38671875 C-12.43274651 11.703458 -23.50182118 8.86480963 -34.39355469 18.34741211 Z M-67 64 C-68.32084976 65.48139353 -68.32084976 65.48139353 -69.6015625 67.4296875 C-70.09140625 68.14253906 -70.58125 68.85539062 -71.0859375 69.58984375 C-71.84777344 70.72099609 -71.84777344 70.72099609 -72.625 71.875 C-73.140625 72.62136719 -73.65625 73.36773437 -74.1875 74.13671875 C-76.97756112 77.7614698 -76.97756112 77.7614698 -78 82 C-75.72093555 83.71159887 -73.43642781 85.30399013 -71.0625 86.875 C-69.58263883 87.87266852 -68.1034948 88.87140146 -66.625 89.87109375 C-65.85800781 90.38784668 -65.09101563 90.90459961 -64.30078125 91.43701172 C-60.68852563 93.89092306 -57.12466505 96.41165397 -53.5625 98.9375 C-52.85875244 99.43556152 -52.15500488 99.93362305 -51.42993164 100.44677734 C-50.00009049 101.45881516 -48.57048429 102.47118501 -47.14111328 103.48388672 C-43.59702704 105.99343923 -40.04829489 108.49640359 -36.5 111 C-35.10544615 111.98434298 -33.71091499 112.96871812 -32.31640625 113.953125 C-31.26864014 114.69272461 -31.26864014 114.69272461 -30.19970703 115.44726562 C-27.05371094 117.66796875 -23.90771484 119.88867188 -20.76171875 122.109375 C-19.61123047 122.92148438 -19.61123047 122.92148438 -18.4375 123.75 C-17.69242187 124.2759375 -16.94734375 124.801875 -16.1796875 125.34375 C-15.16068359 126.06304687 -15.16068359 126.06304687 -14.12109375 126.796875 C-13.09113281 127.52390625 -12.06117188 128.2509375 -11 129 C-7.72249941 125.9296552 -5.20533436 122.6521112 -2.6875 118.9375 C-1.96949219 117.89464844 -1.25148438 116.85179687 -0.51171875 115.77734375 C0.23658203 114.40255859 0.23658203 114.40255859 1 113 C-0.15950304 109.52149089 -0.92944589 109.07673383 -3.875 107.06640625 C-4.68646484 106.50630859 -5.49792969 105.94621094 -6.33398438 105.36914062 C-7.21376953 104.77294922 -8.09355469 104.17675781 -9 103.5625 C-10.84401103 102.29334793 -12.68775701 101.02381067 -14.53125 99.75390625 C-15.45679688 99.11984863 -16.38234375 98.48579102 -17.3359375 97.83251953 C-21.0817472 95.25590227 -24.79218254 92.63085063 -28.5 90 C-33.06452709 86.76986197 -37.6370297 83.5516945 -42.22265625 80.3515625 C-43.11082031 79.73152344 -43.99898438 79.11148438 -44.9140625 78.47265625 C-46.62544909 77.27872431 -48.3376338 76.0859352 -50.05078125 74.89453125 C-54.58667342 71.72978296 -59.03306049 68.49218864 -63.38647461 65.07958984 C-64.95347587 63.81463586 -64.95347587 63.81463586 -67 64 Z M-89 95 C-90.64383547 97.29150047 -92.2371055 99.59938237 -93.8125 101.9375 C-94.82199315 103.42120169 -95.83244046 104.90425454 -96.84375 106.38671875 C-97.36710938 107.15419434 -97.89046875 107.92166992 -98.4296875 108.71240234 C-100.85716548 112.24870034 -103.3323218 115.75054776 -105.8125 119.25 C-110.22818629 125.48624553 -114.62192194 131.737291 -119 138 C-124.82107566 146.32413022 -130.66854264 154.62918439 -136.53222656 162.92333984 C-139.02320986 166.44767516 -141.51144903 169.97394701 -144 173.5 C-144.99998722 174.91667568 -145.99998722 176.33334236 -147 177.75 C-147.495 178.45125 -147.99 179.1525 -148.5 179.875 C-153 186.25 -153 186.25 -154.49951172 188.37426758 C-155.50119043 189.79333958 -156.5028179 191.21244775 -157.50439453 192.6315918 C-159.97829495 196.13675274 -162.45303366 199.64131515 -164.9296875 203.14453125 C-170.30505144 210.75009937 -175.66255014 218.36776805 -181 226 C-186.82123683 234.32401819 -192.668542 242.62918349 -198.53222656 250.92333984 C-201.02320984 254.44767513 -203.51148065 257.97392472 -206 261.5 C-208.97526452 265.71576254 -211.95099792 269.93118778 -214.9296875 274.14453125 C-220.30505144 281.75009937 -225.66255014 289.36776805 -231 297 C-236.80376774 305.29903844 -242.63338011 313.57938373 -248.47949219 321.84863281 C-251.23820179 325.75193227 -253.99387468 329.65737557 -256.75 333.5625 C-257.76561279 335.0013107 -258.7812366 336.44011363 -259.796875 337.87890625 C-260.88742187 339.42384766 -260.88742187 339.42384766 -262 341 C-257.77639428 345.40983491 -252.99069346 348.70470892 -248 352.1875 C-246.64648438 353.14946289 -246.64648438 353.14946289 -245.265625 354.13085938 C-244.39421875 354.74123047 -243.5228125 355.35160156 -242.625 355.98046875 C-241.83351563 356.53629639 -241.04203125 357.09212402 -240.2265625 357.66479492 C-238.10427398 358.93746991 -236.41832799 359.56002166 -234 360 C-233.45811035 359.22474976 -233.45811035 359.22474976 -232.90527344 358.43383789 C-226.62026188 349.44404799 -220.3323838 340.45650813 -214 331.5 C-209.64891479 325.34567703 -205.31910654 319.17680579 -201 313 C-195.17881568 304.67594532 -189.33145779 296.37081622 -183.46777344 288.07666016 C-180.97679016 284.55232487 -178.48851935 281.02607528 -176 277.5 C-173.02473548 273.28423746 -170.04900208 269.06881222 -167.0703125 264.85546875 C-161.69494856 257.24990063 -156.33744986 249.63223195 -151 242 C-145.17876317 233.67598181 -139.331458 225.37081651 -133.46777344 217.07666016 C-130.97679016 213.55232487 -128.48851935 210.02607528 -126 206.5 C-123.02473548 202.28423746 -120.04900208 198.06881222 -117.0703125 193.85546875 C-111.69494856 186.24990063 -106.33744986 178.63223195 -101 171 C-95.18480979 162.68462812 -89.34326027 154.38834371 -83.48535156 146.10302734 C-81.94381562 143.92045163 -80.40517142 141.73586119 -78.8671875 139.55078125 C-78.34946777 138.81577393 -77.83174805 138.0807666 -77.29833984 137.32348633 C-76.27975022 135.87719186 -75.26182772 134.43042728 -74.24462891 132.9831543 C-72.02043245 129.82645773 -69.78225076 126.68576213 -67.46875 123.59375 C-66.7365625 122.6140625 -66.004375 121.634375 -65.25 120.625 C-64.29867187 119.37589844 -64.29867187 119.37589844 -63.328125 118.1015625 C-61.73288528 115.99167312 -61.73288528 115.99167312 -62 113 C-63.66885646 111.44384851 -63.66885646 111.44384851 -65.91015625 110.0390625 C-66.73580078 109.48476562 -67.56144531 108.93046875 -68.41210938 108.359375 C-69.72405273 107.50085938 -69.72405273 107.50085938 -71.0625 106.625 C-72.76211633 105.4927841 -74.46134125 104.35998039 -76.16015625 103.2265625 C-76.98016113 102.68418945 -77.80016602 102.14181641 -78.64501953 101.58300781 C-80.81529492 100.12415797 -82.94191612 98.62111029 -85.05859375 97.0859375 C-87.53495615 94.90358865 -87.53495615 94.90358865 -89 95 Z M-48 124 C-48.65484375 124.95777344 -49.3096875 125.91554687 -49.984375 126.90234375 C-56.40867551 136.28198933 -62.92055875 145.59552607 -69.49267578 154.87207031 C-71.95637882 158.35014541 -74.41621278 161.8309485 -76.875 165.3125 C-77.36476318 166.00593506 -77.85452637 166.69937012 -78.35913086 167.41381836 C-82.25371742 172.93256794 -86.12899307 178.46469315 -90 184 C-95.82123683 192.32401819 -101.668542 200.62918349 -107.53222656 208.92333984 C-110.02320984 212.44767513 -112.51148065 215.97392472 -115 219.5 C-117.97526452 223.71576254 -120.95099792 227.93118778 -123.9296875 232.14453125 C-129.30505144 239.75009937 -134.66255014 247.36776805 -140 255 C-145.82123683 263.32401819 -151.668542 271.62918349 -157.53222656 279.92333984 C-160.02320984 283.44767513 -162.51148065 286.97392472 -165 290.5 C-167.97526452 294.71576254 -170.95099792 298.93118778 -173.9296875 303.14453125 C-179.30505144 310.75009937 -184.66255014 318.36776805 -190 326 C-195.80376774 334.29903844 -201.63338011 342.57938373 -207.47949219 350.84863281 C-210.23820179 354.75193227 -212.99387468 358.65737557 -215.75 362.5625 C-216.76561279 364.0013107 -217.7812366 365.44011363 -218.796875 366.87890625 C-219.88742188 368.42384766 -219.88742188 368.42384766 -221 370 C-217.48510577 373.86092009 -213.42642023 376.60344729 -209.125 379.5 C-208.08279297 380.20962891 -208.08279297 380.20962891 -207.01953125 380.93359375 C-205.65638349 381.86032885 -204.2908845 382.78361663 -202.92285156 383.703125 C-201.68458732 384.53827732 -200.45167257 385.38144517 -199.22558594 386.234375 C-196.37926092 388.35870072 -196.37926092 388.35870072 -193 389 C-191.58312998 387.37431966 -191.58312998 387.37431966 -190.1640625 385.22265625 C-189.31908203 384.000625 -189.31908203 384.000625 -188.45703125 382.75390625 C-187.85246094 381.86574219 -187.24789062 380.97757812 -186.625 380.0625 C-185.3467178 378.20938453 -184.06806624 376.35652379 -182.7890625 374.50390625 C-182.1487207 373.5720752 -181.50837891 372.64024414 -180.84863281 371.68017578 C-178.26305932 367.93157227 -175.63423906 364.21448266 -173 360.5 C-168.64794552 354.34636689 -164.31910227 348.17679969 -160 342 C-154.17881568 333.67594532 -148.33145779 325.37081622 -142.46777344 317.07666016 C-139.97679016 313.55232487 -137.48851935 310.02607528 -135 306.5 C-132.02473548 302.28423746 -129.04900208 298.06881222 -126.0703125 293.85546875 C-120.69494856 286.24990063 -115.33744986 278.63223195 -110 271 C-104.17876317 262.67598181 -98.331458 254.37081651 -92.46777344 246.07666016 C-89.97679016 242.55232487 -87.48851935 239.02607528 -85 235.5 C-82.02473548 231.28423746 -79.04900208 227.06881222 -76.0703125 222.85546875 C-70.69494856 215.24990063 -65.33744986 207.63223195 -60 200 C-54.18480979 191.68462812 -48.34326027 183.38834371 -42.48535156 175.10302734 C-40.94381562 172.92045163 -39.40517142 170.73586119 -37.8671875 168.55078125 C-37.34938721 167.81585449 -36.83158691 167.08092773 -36.2980957 166.32373047 C-35.27957526 164.87714553 -34.26244583 163.42958003 -33.24682617 161.98095703 C-31.02578262 158.82245281 -28.78699372 155.69044143 -26.43359375 152.62890625 C-25.32177734 151.17291016 -25.32177734 151.17291016 -24.1875 149.6875 C-23.21876953 148.45580078 -23.21876953 148.45580078 -22.23046875 147.19921875 C-20.80402527 145.1344839 -20.80402527 145.1344839 -21.17260742 143.0559082 C-22.26270676 140.34722526 -23.59060853 139.52015514 -26.0078125 137.90625 C-26.83023438 137.35066406 -27.65265625 136.79507813 -28.5 136.22265625 C-29.36625 135.65417969 -30.2325 135.08570313 -31.125 134.5 C-31.96804688 133.93152344 -32.81109375 133.36304688 -33.6796875 132.77734375 C-38.35276518 129.64986474 -43.07923894 126.72042075 -48 124 Z M-268 359 C-270.44580402 369.04546243 -272.37510874 379.13796465 -274.1875 389.3125 C-274.46259853 390.84315148 -274.73798751 392.3737508 -275.01367188 393.90429688 C-275.67911911 397.60227385 -276.34067375 401.30092701 -277 405 C-272.67086903 408.33882549 -268.3377573 411.67238927 -264 415 C-263.27570801 415.55606934 -262.55141602 416.11213867 -261.80517578 416.68505859 C-260.23949603 417.87286196 -258.65196165 419.03171386 -257.0625 420.1875 C-256.04285156 420.94417969 -255.02320313 421.70085937 -253.97265625 422.48046875 C-250.2820944 424.36697146 -248.96810534 423.9860897 -245 423 C-242.04573594 421.64179323 -242.04573594 421.64179323 -239.11328125 419.8671875 C-237.4571582 418.90425781 -237.4571582 418.90425781 -235.76757812 417.921875 C-234.61586407 417.23961936 -233.46417144 416.55732756 -232.3125 415.875 C-230.63124023 414.89660156 -230.63124023 414.89660156 -228.91601562 413.8984375 C-221.8392657 409.75835397 -214.88285411 405.45447845 -208 401 C-220.90406863 390.62993008 -234.61895177 381.3191398 -248.23095703 371.9140625 C-250.82173574 370.12322269 -253.40930627 368.32784781 -255.99609375 366.53125 C-257.45555185 365.52057723 -258.91517512 364.51014292 -260.375 363.5 C-261.04072021 363.03722656 -261.70644043 362.57445312 -262.39233398 362.09765625 C-264.97834821 359.95439435 -264.97834821 359.95439435 -268 359 Z M-280 424 C-281.69214979 430.98144819 -283.29843593 437.84404654 -284 445 C-277.76190359 441.99599866 -271.79021346 438.80083844 -266 435 C-270.14010271 430.45924219 -274.82390176 427.28157862 -280 424 Z " fill="#000000" transform="translate(382,23)"/>
<path d="M0 0 C1.98719478 2.98079217 2.10145451 4.93058832 2.15625 8.4375 C1.36736471 11.4074211 0.00714317 12.5071186 -2.375 14.4375 C-4.9118484 15.12453677 -7.16985273 15.57976928 -9.75219727 15.91650391 C-10.4920455 16.02660671 -11.23189373 16.13670952 -11.99416161 16.25014877 C-14.45373625 16.61223765 -16.91598341 16.95056287 -19.37890625 17.2890625 C-21.12542794 17.5415063 -22.871727 17.79549462 -24.61781311 18.05093384 C-28.31144294 18.58843405 -32.00629563 19.11603721 -35.70245361 19.63586426 C-41.25756884 20.41797512 -46.80854249 21.22679868 -52.35888672 22.04199219 C-62.41298852 23.51596692 -72.47029857 24.96698079 -82.52856445 26.41223145 C-87.27770574 27.09505326 -92.02653164 27.78006189 -96.77539062 28.46484375 C-105.97496653 29.79110847 -115.17486683 31.11510691 -124.375 32.4375 C-121.21015143 34.98681891 -117.93488417 36.76716314 -114.29296875 38.56030273 C-113.69408844 38.85667633 -113.09520813 39.15304993 -112.47817993 39.45840454 C-111.1837107 40.09851178 -109.88834921 40.73681717 -108.5921936 41.37350273 C-106.53867415 42.38280412 -104.48808744 43.39784489 -102.43823242 44.41456604 C-96.6117288 47.30342297 -90.78080278 50.18326462 -84.94628906 53.0559082 C-81.37212815 54.81616025 -77.80193267 56.58424569 -74.23403931 58.35716438 C-72.87681312 59.02958318 -71.51807778 59.69896497 -70.1578064 60.36520195 C-68.25382229 61.29790912 -66.35502191 62.24047253 -64.45703125 63.18530273 C-63.37655518 63.71808334 -62.2960791 64.25086395 -61.18286133 64.79978943 C-57.8860462 66.72268673 -54.86026474 68.61062097 -53.84375 72.4375 C-53.89985958 76.02851337 -53.97734567 77.88362432 -56.125 80.875 C-60.59489179 83.97909152 -65.36870621 83.58159795 -70.64292908 83.57121277 C-71.90458156 83.5746111 -71.90458156 83.5746111 -73.19172198 83.57807809 C-76.01446592 83.58441605 -78.83716183 83.58358886 -81.65991211 83.58276367 C-83.681921 83.58575526 -85.70392932 83.58915779 -87.72593689 83.59294128 C-93.22173129 83.60178481 -98.71751013 83.60411953 -104.21331096 83.60475707 C-108.79847267 83.60570593 -113.38363075 83.60938391 -117.96879107 83.61292917 C-128.78412756 83.62107482 -139.59945572 83.62351327 -150.41479492 83.62280273 C-161.57900282 83.62220168 -172.74316244 83.63275877 -183.90735811 83.6485464 C-193.48705776 83.66161161 -203.06674161 83.66698707 -212.6464501 83.66634732 C-218.37040088 83.66609207 -224.09430874 83.66895863 -229.81825066 83.67952538 C-235.20017341 83.68918938 -240.58201208 83.6892972 -245.96393776 83.68200874 C-247.94045001 83.68096084 -249.91696744 83.68333796 -251.89347076 83.6893692 C-254.5891092 83.69706287 -257.28445534 83.69246175 -259.98008728 83.68473816 C-261.15645127 83.6924535 -261.15645127 83.6924535 -262.3565802 83.70032471 C-266.4582348 83.67430967 -269.73063205 83.39032989 -273.375 81.4375 C-275.99797329 78.37736449 -276.38253007 76.87424387 -276.3125 72.8125 C-275.375 69.4375 -275.375 69.4375 -273.74983597 67.75148296 C-270.52936977 65.9696177 -268.11595366 66.05232653 -264.44012451 66.03877258 C-263.39369211 66.02880234 -263.39369211 66.02880234 -262.32611966 66.01863068 C-259.9890746 65.99998163 -257.65254066 66.00260716 -255.31542969 66.00512695 C-253.63997676 65.99611093 -251.96453045 65.9857841 -250.28909302 65.97424316 C-245.73987085 65.94662821 -241.19077368 65.93738255 -236.64147854 65.93138909 C-231.88750172 65.92201712 -227.1336187 65.8958147 -222.37969971 65.87138367 C-213.3771126 65.82768257 -204.37454365 65.79915779 -195.37188268 65.77606028 C-185.12283795 65.74902796 -174.87388741 65.70511524 -164.62490988 65.65977156 C-143.54165723 65.56687358 -122.45837638 65.49521644 -101.375 65.4375 C-102.12002274 65.07054016 -102.86504547 64.70358032 -103.63264465 64.32550049 C-110.65631389 60.86377924 -117.67512045 57.39242914 -124.68864918 53.91020584 C-128.29446193 52.12034045 -131.90203833 50.3342396 -135.51391602 48.55664062 C-139.00016345 46.84070008 -142.48141988 45.1150056 -145.95944786 43.38246918 C-147.28655999 42.72352876 -148.61542621 42.06810888 -149.94605446 41.41629791 C-151.81102066 40.50198895 -153.66933004 39.57530619 -155.52661133 38.64550781 C-156.58584305 38.12144348 -157.64507477 37.59737915 -158.73640442 37.05743408 C-161.43047296 35.40344304 -162.80147198 34.15651489 -164.375 31.4375 C-164.9615992 27.40463051 -164.94525783 25.31087047 -162.69845581 21.86981201 C-158.2035544 17.70002141 -151.5136706 17.73659219 -145.69970703 16.95800781 C-144.29136423 16.75379594 -142.88328795 16.54773884 -141.47546387 16.33998108 C-137.65973528 15.7822079 -133.84079934 15.25028667 -130.02076197 14.72295094 C-126.01801961 14.16589765 -122.01873185 13.58506251 -118.01901245 13.0067749 C-110.44020164 11.91469421 -102.85853355 10.84397436 -95.27560413 9.78091216 C-86.6703262 8.57347593 -78.06848887 7.34237223 -69.46686769 6.10919809 C-52.41298441 3.6647964 -35.35635989 1.23982947 -18.29449844 -1.1483078 C-15.92830926 -1.48400146 -13.56592652 -1.83712024 -11.20333862 -2.19683838 C-6.80987906 -2.76484658 -3.73098364 -2.4545945 0 0 Z " fill="#000000" transform="translate(428.375,410.5625)"/>
</svg>
