<?xml version="1.0" encoding="UTF-8"?>
<svg version="1.1" xmlns="http://www.w3.org/2000/svg" width="512" height="512">
<path d="M0 0 C6.49374436 5.02107772 12.3109179 10.6533198 18.10966492 16.44355774 C19.15846175 17.48590761 20.20739951 18.5281157 21.25646973 19.57019043 C23.44081109 21.74264116 25.62106693 23.91909859 27.7988739 26.09809875 C30.5689785 28.8684068 33.35261266 31.62467395 36.13994884 34.37762928 C38.30634863 36.52163658 40.46344012 38.6748311 42.61814308 40.83058739 C43.63982736 41.84993676 44.66469738 42.86610482 45.69299889 43.87877846 C55.41474051 53.46641328 63.03751861 62.89919324 63.3223114 77.06880188 C63.27016094 98.36206158 51.78505391 109.06132673 37.54350281 123.43864441 C36.06345644 124.93963225 34.58379422 126.44099895 33.1044817 127.94271004 C29.05000381 132.05585723 24.98928828 136.16279565 20.92729139 140.26851583 C17.44054593 143.79425495 13.95734148 147.32348286 10.47400522 150.85258971 C-22.06925339 183.82096748 -54.71162882 216.69157211 -87.37829322 249.53762777 C-92.23981703 254.42594458 -97.1008185 259.31478073 -101.96162415 264.20381165 C-102.49866708 264.74395006 -103.03571001 265.28408847 -103.58902697 265.84059472 C-120.96541943 283.31782086 -138.29306361 300.84240834 -155.59485458 318.39346557 C-173.41786376 336.4727745 -191.2869981 354.50520381 -209.21520383 372.48023022 C-211.75604659 375.02773876 -214.29637991 377.57575473 -216.83641052 380.12407303 C-217.3362223 380.62547965 -217.83603407 381.12688627 -218.35099166 381.64348702 C-226.33977882 389.66038583 -234.27981665 397.72389049 -242.20205605 405.80649807 C-250.19429064 413.95832705 -258.23882111 422.05479846 -266.3341465 430.10443412 C-270.70574687 434.45432373 -275.05260064 438.82258551 -279.33884811 443.25674057 C-300.11231195 464.71025591 -317.24117155 477.6367136 -347.03233397 482.86467367 C-352.5143874 483.83683727 -357.81445907 485.3862018 -363.14570618 486.97163391 C-364.83128957 487.43972788 -366.51777765 487.90459115 -368.20561218 488.36450195 C-369.01171307 488.58545721 -369.81781395 488.80641247 -370.64834213 489.03406334 C-377.03851115 490.78255153 -383.42957235 492.52771845 -389.82197571 494.26802063 C-393.6182816 495.30225281 -397.4126883 496.34310143 -401.20576477 497.38911438 C-405.89697513 498.68272305 -410.59110498 499.96516039 -415.28754044 501.23966408 C-417.04514379 501.71859382 -418.8017082 502.2013554 -420.55712509 502.68823814 C-422.98621613 503.36115121 -425.41881463 504.01957208 -427.85273743 504.67475891 C-428.90451424 504.97143715 -428.90451424 504.97143715 -429.97753906 505.27410889 C-435.68337122 506.78408972 -442.2838835 508.16790863 -447.62080383 505.17402649 C-451.60770917 498.06693437 -448.10831823 488.85797787 -446.07661438 481.5617218 C-445.75956543 480.38825699 -445.44251648 479.21479218 -445.11585999 478.00576782 C-444.25015914 474.81148168 -443.3744052 471.62030497 -442.49343848 468.4302187 C-441.5706181 465.0806878 -440.65964982 461.7279331 -439.74697876 458.37562561 C-438.21390345 452.75170795 -436.67177699 447.13033425 -435.12397766 441.51045227 C-433.33688518 435.02136301 -431.56331455 428.52869619 -429.79710358 422.03389478 C-428.093557 415.77045484 -426.38136903 409.50941028 -424.66494179 403.24948883 C-423.93628401 400.59164374 -423.21048145 397.93304367 -422.48695946 395.27379608 C-421.47629383 391.56130515 -420.45291718 387.85238504 -419.42817688 384.14375305 C-419.13038834 383.04442947 -418.83259979 381.9451059 -418.52578735 380.81246948 C-418.10310074 379.2945002 -418.10310074 379.2945002 -417.671875 377.74586487 C-417.43128703 376.86986759 -417.19069906 375.99387032 -416.94282055 375.09132767 C-414.89162318 369.34066004 -411.25856668 365.52418789 -407.0167532 361.31270695 C-406.09167025 360.38236489 -406.09167025 360.38236489 -405.14789876 359.43322805 C-403.07266015 357.34865891 -400.9903539 355.27129689 -398.90802002 353.19381714 C-397.40658434 351.68864603 -395.90558197 350.18304258 -394.4049769 348.67704338 C-390.27400866 344.53381628 -386.1367848 340.39688515 -381.99850619 336.26096141 C-377.53873388 331.80159655 -373.08468759 327.33651872 -368.62986755 322.87220764 C-359.89833074 314.12404358 -351.16124291 305.38144676 -342.42193329 296.64104862 C-335.3187221 289.53691848 -328.21711162 282.43119202 -321.11662483 275.32433891 C-319.0729935 273.27891249 -317.02935443 271.23349379 -314.98571306 269.18807739 C-314.4776591 268.67958133 -313.96960514 268.17108527 -313.4461556 267.64718024 C-299.1536267 253.3423414 -284.85888911 239.03971277 -270.55976009 224.74147129 C-270.02056633 224.20230869 -269.48137257 223.66314608 -268.9258396 223.10764522 C-266.19296301 220.37493484 -263.46007049 217.6422404 -260.72717445 214.90954948 C-260.18441047 214.36682539 -259.64164648 213.82410129 -259.0824351 213.26493101 C-257.98483314 212.16740992 -256.88722982 211.0698902 -255.78962514 209.97237183 C-238.71651398 192.90048592 -221.65153898 175.8205036 -204.59272766 158.73432922 C-185.42757067 139.53844319 -166.25566367 120.34933327 -147.07420641 101.16973442 C-145.02834548 99.12402275 -142.98251047 97.07828515 -140.93669319 95.03252983 C-140.432957 94.52881695 -139.9292208 94.02510406 -139.41021988 93.50612715 C-131.30755587 85.40352466 -123.21132303 77.29452553 -115.11731011 69.18328222 C-106.97998298 61.02899136 -98.83501708 52.88240743 -90.68280422 44.74299497 C-86.26746384 40.33419091 -81.85541101 35.92222425 -77.4520092 31.50149345 C-73.41947481 27.45325315 -69.37779255 23.41438503 -65.32867796 19.38273048 C-63.8668306 17.92395843 -62.40834141 16.46181157 -60.95361041 14.99594278 C-44.8295307 -1.24336394 -22.27148408 -15.02371282 0 0 Z M-43.40205383 22.56465149 C-44.0566156 23.22487305 -44.71117737 23.8850946 -45.38557434 24.56532288 C-47.45282063 26.65477434 -49.50563736 28.75776029 -51.55830383 30.86152649 C-52.96622363 32.28953166 -54.37506935 33.71662455 -55.78486633 35.14277649 C-59.22013893 38.62190582 -62.64255023 42.11323609 -66.05830383 45.61152649 C-61.86301202 50.61772598 -57.48959231 55.3196787 -52.85957336 59.92378235 C-51.81950386 60.96407089 -51.81950386 60.96407089 -50.75842285 62.02537537 C-48.48835212 64.29475489 -46.21477054 66.56058144 -43.94111633 68.82637024 C-42.35763544 70.40798413 -40.77437662 71.98982038 -39.19132996 73.5718689 C-35.04090292 77.71849294 -30.88748064 81.862104 -26.7334137 86.00508118 C-22.48832423 90.2399087 -18.24609333 94.47759768 -14.00361633 98.71504211 C-5.69129721 107.01666304 2.62419105 115.31510171 10.94169617 123.61152649 C12.0458019 122.67216959 13.14889437 121.73162167 14.25157166 120.79058838 C14.86596729 120.26695174 15.48036293 119.74331511 16.11337662 119.20381069 C18.83505812 116.83349722 21.41832237 114.33530783 23.98857117 111.80293274 C24.52645264 111.27312302 25.06433411 110.74331329 25.61851501 110.19744873 C26.74249158 109.08717297 27.86501925 107.97542862 28.98612976 106.86225891 C30.12590503 105.73406739 31.27014959 104.61037375 32.41874695 103.49116516 C34.0978328 101.85488141 35.76314597 100.20561949 37.42607117 98.55293274 C38.19017303 97.815093 38.19017303 97.815093 38.9697113 97.06234741 C44.08555706 91.91517069 46.36788685 86.59611847 46.50419617 79.29902649 C46.54673523 78.27164368 46.58927429 77.24426086 46.63310242 76.18574524 C44.68965474 66.13910897 36.80290235 58.89180652 29.79325867 51.96699524 C28.81143051 50.98501161 27.83027289 50.00235715 26.8497467 49.01907349 C24.8069191 46.97487205 22.75739259 44.93772478 20.70243835 42.90571594 C18.08603057 40.31774627 15.48554505 37.71444066 12.88968849 35.10587597 C10.87056574 33.07975776 8.84407626 31.06113883 6.81527328 29.04471779 C5.39156599 27.62763593 3.97327437 26.20511964 2.55513 24.7824707 C-4.70392506 17.62793203 -11.1651919 11.55642934 -21.74580383 11.29902649 C-22.73967102 11.26164368 -23.73353821 11.22426086 -24.75752258 11.18574524 C-32.71161986 12.21177672 -38.00236508 16.9836761 -43.40205383 22.56465149 Z M-81.22236633 60.58027649 C-82.03447571 61.41558899 -82.84658508 62.25090149 -83.68330383 63.11152649 C-84.90920227 64.36449524 -84.90920227 64.36449524 -86.15986633 65.64277649 C-86.78635071 66.29246399 -87.41283508 66.94215149 -88.05830383 67.61152649 C-86.73120124 70.55362484 -85.29040393 72.6276708 -83.00846863 74.90187073 C-82.3830719 75.53001678 -81.75767517 76.15816284 -81.11332703 76.80534363 C-80.42856293 77.48291718 -79.74379883 78.16049072 -79.0382843 78.8585968 C-78.31622803 79.58094513 -77.59417175 80.30329346 -76.85023499 81.04753113 C-74.46336394 83.43300928 -72.06948764 85.81132588 -69.67549133 88.18965149 C-68.01881605 89.84259651 -66.36258189 91.49598376 -64.70677185 93.14979553 C-60.34804466 97.50088737 -55.9833446 101.84593962 -51.61738586 106.18977356 C-47.16308879 110.6236102 -42.71444966 115.06311558 -38.26533508 119.50215149 C-29.53519528 128.21084309 -20.79873689 136.91316657 -12.05830383 145.61152649 C-8.87743865 144.10206137 -6.75960478 142.53210824 -4.30830383 139.98652649 C-3.69471008 139.35488586 -3.08111633 138.72324524 -2.44892883 138.07246399 C-1.99002258 137.59035461 -1.53111633 137.10824524 -1.05830383 136.61152649 C-2.38387269 133.67587915 -3.8227141 131.5963141 -6.09468079 129.32118225 C-6.71718719 128.69303619 -7.3396936 128.06489014 -7.98106384 127.41770935 C-8.66268585 126.7401358 -9.34430786 126.06256226 -10.04658508 125.36445618 C-10.76542877 124.64210785 -11.48427246 123.91975952 -12.22489929 123.17552185 C-14.6018605 120.78975908 -16.98606163 118.41138476 -19.37080383 116.03340149 C-21.02254554 114.38031299 -22.67399021 112.72692765 -24.32514954 111.07325745 C-27.78536479 107.61009331 -31.24917314 104.15057388 -34.7155304 100.69355774 C-39.16809119 96.25240906 -43.61159079 91.80231965 -48.05245972 87.34948349 C-51.45964966 83.93508386 -54.87156734 80.52544078 -58.28495789 77.11724091 C-59.92595952 75.47757732 -61.5654661 73.8364161 -63.20347595 72.19376373 C-65.48753388 69.90465336 -67.77785827 67.62200781 -70.07002258 65.34101868 C-70.75164459 64.65534821 -71.4332666 63.96967773 -72.13554382 63.26322937 C-73.06930344 62.33792923 -73.06930344 62.33792923 -74.02192688 61.39393616 C-74.5631871 60.85342999 -75.10444733 60.31292381 -75.66210938 59.75603867 C-78.16150731 57.70718984 -78.91289042 58.47923703 -81.22236633 60.58027649 Z M-103.03557879 82.46460295 C-103.91311247 83.34251635 -104.79064615 84.22042975 -105.69477177 85.12494659 C-106.18386561 85.61288659 -106.67295945 86.10082658 -107.17687431 86.60355264 C-108.83701556 88.26101898 -110.49352696 89.92206792 -112.15011597 91.58308411 C-113.34283262 92.77536524 -114.53576877 93.96742683 -115.72890705 95.15928602 C-119.02395956 98.45208987 -122.31586468 101.74802502 -125.60729349 105.04445052 C-129.15083975 108.5922958 -132.6972553 112.1372708 -136.24333191 115.68258667 C-142.39241001 121.83113918 -148.53964747 127.98152704 -154.68565559 134.13314819 C-163.57186955 143.02747249 -172.46082769 151.91905003 -181.35046851 160.8099491 C-195.771556 175.23322784 -210.19040667 189.65874059 -224.60786438 204.08564758 C-238.61711283 218.10406826 -252.62740613 232.12144332 -266.63911438 246.1374054 C-267.93358288 247.43226798 -267.93358288 247.43226798 -269.25420225 248.7532894 C-273.58331103 253.08370317 -277.91244045 257.41409631 -282.24158013 261.74447918 C-318.18368882 297.69696277 -354.12217328 333.65306754 -390.05830383 369.61152649 C-389.48074063 369.89671388 -388.90317744 370.18190128 -388.30811232 370.47573072 C-386.89810111 371.18756232 -385.50010559 371.92431599 -384.12218696 372.6964404 C-378.00464179 375.92563159 -371.9883449 377.86867484 -365.05830383 376.61152649 C-354.84434721 371.24097155 -346.84859201 361.7517757 -338.94888866 353.51981747 C-335.57520871 350.03347473 -332.12629925 346.62296909 -328.68609619 343.20248413 C-322.74182274 337.27182133 -316.84687489 331.29555704 -310.98311424 325.28531837 C-302.50544885 316.59601904 -293.95657103 307.97972628 -285.38882659 299.37934294 C-271.48954677 285.42320837 -257.64927511 271.41004925 -243.84516907 257.3598175 C-230.43857119 243.71443277 -217.00483566 230.09672513 -203.53364563 216.51509094 C-202.70280406 215.67741856 -201.87196249 214.83974618 -201.01594391 213.97668979 C-196.84753666 209.77435068 -192.67858967 205.5725475 -188.50937402 201.37101042 C-153.94161934 166.5338764 -119.46915231 131.60360763 -85.05830383 96.61152649 C-86.00490936 95.49934672 -86.95263888 94.38812357 -87.90083313 93.27729797 C-88.69229988 92.34892372 -88.69229988 92.34892372 -89.49975586 91.40179443 C-91.53388855 89.06523334 -93.67685536 86.86049984 -95.87080383 84.67402649 C-96.64037415 83.90187805 -97.40994446 83.12972961 -98.20283508 82.33418274 C-100.60907125 80.00676392 -100.60907125 80.00676392 -103.03557879 82.46460295 Z M-77.5698328 112.93855476 C-78.04541965 113.40639665 -78.5210065 113.87423853 -79.01100507 114.35625744 C-80.62522487 115.9455135 -82.23580591 117.53840769 -83.84640503 119.1313324 C-85.00615223 120.27490946 -86.1660892 121.4182941 -87.3262009 122.56150138 C-90.53025573 125.72037229 -93.73093993 128.88263947 -96.93094957 132.04560757 C-98.97664399 134.06710313 -101.02326918 136.08765154 -103.07021713 138.10787773 C-129.78769814 164.47691485 -156.43183879 190.91996279 -183.05398655 217.38521004 C-186.43243423 220.74339082 -189.81107985 224.10137232 -193.18989563 227.45918274 C-194.4495915 228.71107062 -194.4495915 228.71107062 -195.73473578 229.98824917 C-209.3246767 243.49162578 -222.9544 256.95413689 -236.59975899 270.40148462 C-250.60766226 284.20779662 -264.57340554 298.05570473 -278.50071377 311.9433192 C-287.0916241 320.50718894 -295.7132841 329.03745065 -304.37747621 337.5271831 C-310.32018849 343.35650599 -316.22122172 349.22598396 -322.09152836 355.12820752 C-325.47717398 358.52988851 -328.8778506 361.91147883 -332.32927132 365.24651527 C-348.64988327 379.76883393 -348.64988327 379.76883393 -355.79255098 399.3918761 C-355.618255 403.62395562 -355.03698204 407.48876296 -354.05830383 411.61152649 C-345.28690475 413.69499828 -336.81212688 414.4741772 -328.80875635 409.6547184 C-320.32273729 403.36951922 -313.05989617 395.42623325 -305.74828005 387.85494637 C-302.35591309 384.36694924 -298.89952788 380.94338113 -295.45077515 377.5112915 C-289.49473557 371.56674943 -283.58008352 365.58348752 -277.69218826 359.57147217 C-269.17962086 350.87957385 -260.60643543 342.2495743 -252.01758133 333.63312942 C-238.08244114 319.64992193 -224.19706744 305.6183677 -210.34248352 291.55537415 C-196.88956037 277.90029629 -183.41356223 264.26868 -169.90596008 250.66767883 C-169.07239424 249.82833308 -168.2388284 248.98898732 -167.38000299 248.12420684 C-163.1978133 243.91330487 -159.01516672 239.70285706 -154.8322928 235.49263477 C-120.16985796 200.60238971 -85.58791887 165.63318961 -51.05830383 130.61152649 C-52.01510149 129.4895426 -52.97271164 128.36825154 -53.93066406 127.24725342 C-54.46384593 126.62276023 -54.9970278 125.99826704 -55.54636669 125.35484982 C-57.26000949 123.37895189 -59.04279131 121.49775476 -60.89033508 119.64668274 C-61.54324524 118.99248352 -62.1961554 118.3382843 -62.86885071 117.66426086 C-63.52949524 117.00748352 -64.19013977 116.35070618 -64.87080383 115.67402649 C-65.89077454 114.648255 -65.89077454 114.648255 -66.93135071 113.60176086 C-67.57781555 112.95658508 -68.2242804 112.3114093 -68.89033508 111.64668274 C-69.47532776 111.06281799 -70.06032043 110.47895325 -70.66304016 109.87739563 C-73.66058193 107.15784111 -75.17530031 110.57642494 -77.5698328 112.93855476 Z M-43.5709753 146.91455746 C-44.28451939 147.61243954 -44.28451939 147.61243954 -45.0124785 148.32442024 C-46.6270208 149.90488107 -48.23792149 151.48900293 -49.84881592 153.07318115 C-51.00872618 154.21048445 -52.16881419 155.3476065 -53.32906586 156.4845615 C-56.53338927 159.62613753 -59.73425248 162.77121861 -62.93436086 165.91708744 C-64.98005991 167.9276439 -67.02667298 169.93726544 -69.07357597 171.94659615 C-94.94069251 197.34032123 -120.7178559 222.82501636 -146.4594489 248.34592893 C-150.66984259 252.52020792 -154.88084885 256.69386845 -159.09223938 260.86714172 C-159.93061988 261.6979561 -160.76900037 262.52877047 -161.63278634 263.38476104 C-175.20480408 276.83103733 -188.83198069 290.22003187 -202.48087036 303.58822083 C-216.48955919 317.31118504 -230.43875657 331.09253334 -244.33427769 344.93008667 C-252.90819182 353.46460334 -261.52476136 361.9507504 -270.20187957 370.38033826 C-276.1502951 376.1678212 -282.03972415 382.01127037 -287.88636684 387.9015336 C-291.26080487 391.29778737 -294.65509935 394.6641114 -298.12187958 397.96627426 C-312.085463 410.14551689 -312.085463 410.14551689 -319.49726224 426.26247907 C-318.96666063 433.95184989 -316.56713183 440.79092276 -313.05830383 447.61152649 C-306.46687322 442.18950815 -300.49280187 436.18298299 -294.4727478 430.14622498 C-293.29960114 428.97351479 -292.12623458 427.80102456 -290.95266813 426.62873447 C-287.73959046 423.41788666 -284.52962885 420.20393955 -281.32017839 416.98946667 C-277.85446141 413.51942368 -274.38584716 410.05227889 -270.91758728 406.58477783 C-264.91267123 400.58038566 -258.9095861 394.574168 -252.90774727 388.56669998 C-244.23013542 379.88095462 -235.54975744 371.19797803 -226.86870592 362.51567064 C-212.78370761 348.42848473 -198.70094305 334.33906797 -184.61958313 320.24824524 C-170.94237064 306.5618511 -157.2641063 292.87650961 -143.58442688 279.19258118 C-142.7409462 278.34883777 -141.89746551 277.50509436 -141.02842481 276.63578297 C-136.7968443 272.40289741 -132.56524311 268.17003251 -128.33363163 263.9371779 C-93.2386492 228.83183192 -58.14729178 193.72286409 -23.05830383 158.61152649 C-24.00490936 157.49934672 -24.95263888 156.38812357 -25.90083313 155.27729797 C-26.69229988 154.34892372 -26.69229988 154.34892372 -27.49975586 153.40179443 C-29.53388855 151.06523334 -31.67685536 148.86049984 -33.87080383 146.67402649 C-34.64037415 145.90187805 -35.40994446 145.12972961 -36.20283508 144.33418274 C-39.64741841 141.13615906 -40.57952855 143.98068095 -43.5709753 146.91455746 Z M-401.05830383 385.61152649 C-403.23060356 391.17614689 -405.01128345 396.714574 -406.53877258 402.48652649 C-406.75648819 403.29646057 -406.9742038 404.10639465 -407.19851685 404.94087219 C-407.88465885 407.49677933 -408.56532101 410.05410754 -409.24580383 412.61152649 C-409.71353939 414.35771762 -410.181635 416.10381235 -410.65010071 417.84980774 C-411.79033069 422.10261172 -412.92565274 426.35669804 -414.05830383 430.61152649 C-411.17210725 432.81254469 -408.21719614 434.79822798 -405.13520813 436.7179718 C-390.56167769 445.84030464 -382.21876792 456.57631021 -374.05830383 471.61152649 C-369.89913437 470.54793095 -365.74064912 469.48170752 -361.5827179 468.4132843 C-360.17501526 468.05192492 -358.7671437 467.69122284 -357.35908508 467.33125305 C-347.87937397 464.9071555 -338.45179741 462.3522945 -329.05830383 459.61152649 C-327.99093609 455.61957112 -328.20700976 452.92574898 -329.23799133 448.94355774 C-329.5074054 447.88588196 -329.77681946 446.82820618 -330.05439758 445.73847961 C-330.34443665 444.64471008 -330.63447571 443.55094055 -330.93330383 442.42402649 C-331.21560852 441.3186554 -331.49791321 440.2132843 -331.78877258 439.07441711 C-333.05800758 433.71171321 -333.05800758 433.71171321 -335.05830383 428.61152649 C-335.88032288 428.59170715 -336.70234192 428.57188782 -337.54927063 428.5514679 C-341.28176509 428.45608046 -345.01371053 428.3464556 -348.74580383 428.23652649 C-350.03937805 428.20558899 -351.33295227 428.17465149 -352.66572571 428.14277649 C-353.91289368 428.10410461 -355.16006165 428.06543274 -356.44502258 428.02558899 C-357.59188538 427.99416809 -358.73874817 427.96274719 -359.92036438 427.93037415 C-363.1098113 427.60629279 -365.28612339 427.22422004 -368.05830383 425.61152649 C-370.24124318 421.85910761 -370.35513995 418.2770082 -370.47236633 413.99824524 C-370.53037415 412.12749329 -370.53037415 412.12749329 -370.58955383 410.21894836 C-370.62049133 408.92537415 -370.65142883 407.63179993 -370.68330383 406.29902649 C-370.74131165 404.32966125 -370.74131165 404.32966125 -370.80049133 402.32051086 C-370.89463501 399.08432212 -370.98026735 395.84813714 -371.05830383 392.61152649 C-373.89127284 391.8185373 -376.72466168 391.02710377 -379.55830383 390.23652649 C-380.34978821 390.01480774 -381.14127258 389.79308899 -381.95674133 389.56465149 C-384.32180467 388.90553548 -386.68905542 388.25543027 -389.05830383 387.61152649 C-389.79693665 387.41011047 -390.53556946 387.20869446 -391.29658508 387.00117493 C-394.70233353 386.10550732 -397.50870525 385.61152649 -401.05830383 385.61152649 Z M-419.05830383 448.61152649 C-420.3465746 453.23620537 -421.62812396 457.86267459 -422.90351868 462.49092102 C-423.33820456 464.06467191 -423.774713 465.63792059 -424.21308899 467.21064758 C-424.84339672 469.47318078 -425.46709756 471.73744746 -426.08955383 474.00215149 C-426.28641785 474.70334106 -426.48328186 475.40453064 -426.68611145 476.12696838 C-427.59486405 479.45753752 -428.05830383 482.12448153 -428.05830383 485.61152649 C-420.13888885 484.97514493 -412.66852994 482.70763406 -405.05830383 480.54902649 C-403.6977734 480.16764358 -402.33709734 479.78677976 -400.97627258 479.40644836 C-397.66858174 478.48078976 -394.36292008 477.54811023 -391.05830383 476.61152649 C-394.86841665 464.62151044 -404.28246546 455.91802894 -414.92158508 449.67793274 C-416.95854664 448.46267343 -416.95854664 448.46267343 -419.05830383 448.61152649 Z " fill="#000000" transform="translate(449.0583038330078,5.3884735107421875)"/>
</svg>
