<?xml version="1.0" encoding="UTF-8"?>
<svg version="1.1" xmlns="http://www.w3.org/2000/svg" width="512" height="512">
<path d="M0 0 C1.63254982 0.00068733 1.63254982 0.00068733 3.29808044 0.00138855 C5.58455506 0.00438553 7.8710281 0.01219406 10.1574707 0.0246582 C13.58878134 0.04279793 17.01981843 0.04516797 20.45117188 0.04492188 C33.68204991 0.06674851 46.85260624 0.41731753 60.05859375 1.23046875 C60.0543338 1.89089172 60.05007385 2.5513147 60.04568481 3.23175049 C60.02893458 7.68222177 60.0217602 12.0913575 60.42578125 16.52734375 C60.50586426 17.41663574 60.58594727 18.30592773 60.66845703 19.22216797 C60.75595215 20.13240723 60.84344727 21.04264648 60.93359375 21.98046875 C61.02237793 22.93840332 61.11116211 23.89633789 61.20263672 24.88330078 C61.72299015 30.31820494 62.36746727 35.70737504 63.18359375 41.10546875 C64.29094512 48.70387975 64.82070959 53.82071451 61.62109375 61.04296875 C57.4871936 70.39122022 57.07991583 79.43183144 60.05859375 89.23046875 C65.21447848 101.55318444 71.57894785 109.04560349 83.80859375 114.54296875 C94.15289353 118.34813621 104.74685253 117.93040699 115.05859375 114.23046875 C124.08794216 109.56886728 131.21974588 102.13344082 136.05859375 93.23046875 C140.09848374 80.24629557 140.14500622 68.9208298 133.93359375 56.60546875 C131.89401886 53.06730377 129.51906687 50.81766888 126.43359375 48.16796875 C120.30886709 42.37898292 119.93415267 35.1841442 119.05859375 27.23046875 C118.86716797 25.93882813 118.86716797 25.93882813 118.671875 24.62109375 C117.81455046 18.51961517 117.9649676 12.37858604 118.05859375 6.23046875 C126.79191567 6.57980163 135.41055464 7.26674829 144.05859375 8.54296875 C144.83436768 8.64843018 145.6101416 8.7538916 146.40942383 8.86254883 C151.73765258 9.69710446 156.55710007 11.17340022 161.05859375 14.23046875 C170.61664847 27.40508471 169.50336875 51.24238382 171.05859375 66.85546875 C171.18832581 68.14681732 171.31805786 69.43816589 171.45172119 70.76864624 C174.62835871 102.56852404 177.28612921 134.37822887 177.37109375 166.35546875 C177.37674347 167.51860092 177.37674347 167.51860092 177.38250732 168.70523071 C177.44855113 195.07837042 177.44855113 195.07837042 170.26121038 203.28200245 C169.58731144 203.95785232 168.91341249 204.63370218 168.21909237 205.33003235 C167.04896222 206.51076088 167.04896222 206.51076088 165.85519308 207.71534252 C164.99918038 208.56894013 164.14316769 209.42253775 163.26121521 210.30200195 C161.89588019 211.67519199 161.89588019 211.67519199 160.50296265 213.07612324 C157.97960202 215.61364846 155.45002932 218.14490015 152.91935766 220.67513132 C150.18967516 223.40646339 147.46571508 226.14349265 144.74095154 228.87973022 C138.78328642 234.86023398 132.81817628 240.83327493 126.8516109 246.80489731 C123.12472748 250.53503917 119.39947911 254.26681092 115.67457771 257.99893188 C105.35715605 268.33591826 95.03815687 278.67132232 84.71240139 288.99998474 C84.05177745 289.66079625 83.39115352 290.32160775 82.71051067 291.00244385 C81.371309 292.34201177 80.03210606 293.68157841 78.69290184 295.02114379 C78.02813828 295.68609017 77.36337471 296.35103655 76.6784668 297.03613281 C75.68009965 298.03477079 75.68009965 298.03477079 74.66156346 299.05358326 C63.87923318 309.83945453 53.1086915 320.6370145 42.34330379 331.43979371 C31.28524147 342.53595555 20.21782752 353.62271621 9.14084965 364.69999599 C2.92386237 370.91756748 -3.28912315 377.13902159 -9.49191475 383.37075806 C-14.77414607 388.67752522 -20.06494102 393.97556614 -25.3669653 399.26256108 C-28.0702294 401.95866533 -30.76934869 404.65859345 -33.45763397 407.36964035 C-36.37664698 410.31313 -39.3148088 413.23674336 -42.25514221 416.15893555 C-43.09553986 417.01253316 -43.9359375 417.86613077 -44.80180174 418.74559498 C-53.8876884 427.70414418 -62.62383624 431.57237405 -75.33081055 431.53637695 C-94.06777578 431.14688849 -106.12742425 414.19600394 -118.53491211 401.7980957 C-119.95693596 400.38071258 -121.37915229 398.96352255 -122.80154419 397.54650879 C-126.62792133 393.73312308 -130.45107309 389.91652072 -134.27319407 386.09886956 C-136.6655637 383.70944777 -139.05851202 381.32060698 -141.45163155 378.93193626 C-148.95301285 371.44418493 -156.45242286 363.95446768 -163.94893163 356.46183807 C-172.57947203 347.83578995 -181.21653738 339.21634553 -189.85926336 330.60250694 C-196.56122296 323.92216778 -203.25740283 317.23607108 -209.9492293 310.54558152 C-213.93793166 306.55792542 -217.92900969 302.57271949 -221.92613029 298.59350014 C-225.67976808 294.85635277 -229.42616586 291.11209592 -233.16717911 287.36231232 C-234.53797449 285.99074752 -235.9113226 284.62172838 -237.28744316 283.25550652 C-239.17072 281.3849822 -241.0444265 279.50534781 -242.91612244 277.62324524 C-243.4575603 277.08986378 -243.99899815 276.55648233 -244.55684322 276.0069378 C-252.23341882 268.23071143 -256.17702925 260.12245339 -256.37890625 249.04296875 C-256.20338624 239.15534162 -253.55410007 231.76027508 -246.8270607 224.46420288 C-246.02805863 223.5974934 -245.22905656 222.73078392 -244.4058423 221.83781052 C-240.56148871 217.77053368 -236.65452772 213.77169948 -232.70843506 209.80322266 C-231.82378673 208.90995868 -230.9391384 208.0166947 -230.02768254 207.09636211 C-227.60115157 204.64650798 -225.17166703 202.19960269 -222.7415545 199.75330186 C-220.65069586 197.64777685 -218.56157658 195.54052991 -216.47241011 193.43332607 C-196.67807807 173.46892944 -176.84121218 153.54664701 -156.99592209 133.63291931 C-154.4185877 131.04653804 -151.84133502 128.46007539 -149.26416016 125.87353516 C-148.6236963 125.23075139 -147.98323244 124.58796762 -147.32336059 123.92570555 C-136.93401048 113.49752734 -126.56573542 103.04864114 -116.20539948 92.59164572 C-105.55031422 81.83798238 -94.87446039 71.10527861 -84.17867494 60.39209366 C-78.18086134 54.38338912 -72.19276052 48.36564588 -66.22832489 42.3237915 C-61.15346843 37.18307701 -56.06034233 32.06139214 -50.94246069 26.96349484 C-48.33417236 24.36421996 -45.73551965 21.75695317 -43.16041756 19.12476158 C-40.36378966 16.2666194 -37.52594397 13.45322588 -34.68231201 10.6418457 C-33.88198225 9.8101568 -33.08165248 8.9784679 -32.2570703 8.12157631 C-23.18701731 -0.68535685 -12.00691793 -0.08562526 0 0 Z M23.44213867 139.71508789 C22.81412354 140.39176514 22.1861084 141.06844238 21.5390625 141.765625 C20.84619141 142.49201172 20.15332031 143.21839844 19.43945312 143.96679688 C17.98075883 145.51381816 16.53015782 147.06851202 15.08789062 148.63085938 C14.39115234 149.35595703 13.69441406 150.08105469 12.9765625 150.828125 C12.34516357 151.50367432 11.71376465 152.17922363 11.06323242 152.87524414 C9.05859375 154.23046875 9.05859375 154.23046875 6.51806641 154.04052734 C3.24309106 152.96187257 0.27803348 151.40910018 -2.75390625 149.79296875 C-14.63258744 143.73744028 -27.22376304 141.89107844 -40.25390625 145.73046875 C-51.4493469 150.07496811 -60.88094367 158.12134726 -66.28515625 168.9140625 C-72.36796283 183.53452259 -69.90921543 198.16584759 -64.25390625 212.54296875 C-62.5345246 216.69768037 -60.69151453 220.79567022 -58.84375 224.89453125 C-58.30850708 226.08502075 -58.30850708 226.08502075 -57.76245117 227.29956055 C-57.06884395 228.83333846 -56.36765096 230.36371773 -55.6574707 231.88989258 C-51.92275463 240.06614366 -49.81971552 248.17385474 -50.94140625 257.23046875 C-53.07719145 261.66024546 -55.33153339 264.42660546 -59.94140625 266.23046875 C-67.65291577 267.46760931 -73.47635369 265.41025548 -79.94140625 261.23046875 C-82.44140625 258.91796875 -82.44140625 258.91796875 -83.94140625 257.23046875 C-84.60140625 257.23046875 -85.26140625 257.23046875 -85.94140625 257.23046875 C-86.21726563 256.62976563 -86.493125 256.0290625 -86.77734375 255.41015625 C-87.96937501 252.96226294 -87.96937501 252.96226294 -90.56640625 250.35546875 C-98.70511576 241.06261462 -104.0738671 228.83308619 -107.94140625 217.23046875 C-111.61083486 218.60108274 -114.88000122 220.26401663 -118.2421875 222.26953125 C-119.21865234 222.84960938 -120.19511719 223.4296875 -121.20117188 224.02734375 C-122.20857422 224.630625 -123.21597656 225.23390625 -124.25390625 225.85546875 C-125.28064453 226.46648437 -126.30738281 227.0775 -127.36523438 227.70703125 C-129.892545 229.21166269 -132.41784024 230.71956815 -134.94140625 232.23046875 C-134.43646303 235.72376333 -133.9120799 238.79551396 -132.33984375 241.96484375 C-132.01806152 242.61654541 -131.6962793 243.26824707 -131.36474609 243.93969727 C-131.01879395 244.61315186 -130.6728418 245.28660645 -130.31640625 245.98046875 C-129.95885254 246.68421631 -129.60129883 247.38796387 -129.23291016 248.11303711 C-125.09454822 256.09416371 -120.23127323 263.24228748 -113.91015625 269.66015625 C-112.94140625 271.23046875 -112.94140625 271.23046875 -113.16967773 273.09912109 C-114.11217833 275.7021044 -115.34205442 276.97395773 -117.3203125 278.90234375 C-117.99384766 279.56621094 -118.66738281 280.23007812 -119.36132812 280.9140625 C-120.4219043 281.93693359 -120.4219043 281.93693359 -121.50390625 282.98046875 C-122.5702832 284.02654297 -122.5702832 284.02654297 -123.65820312 285.09375 C-125.41271339 286.81293455 -127.17383977 288.52472747 -128.94140625 290.23046875 C-127.54793249 293.38251856 -125.91655546 295.49218648 -123.46484375 297.90234375 C-122.79453125 298.56621094 -122.12421875 299.23007812 -121.43359375 299.9140625 C-120.73492187 300.59597656 -120.03625 301.27789062 -119.31640625 301.98046875 C-118.61 302.67785156 -117.90359375 303.37523437 -117.17578125 304.09375 C-115.43541922 305.81059363 -113.69055644 307.52258707 -111.94140625 309.23046875 C-108.39101974 306.29501631 -104.94930254 303.32648386 -101.7734375 299.984375 C-101.27263672 299.45779297 -100.77183594 298.93121094 -100.25585938 298.38867188 C-99.23538142 297.30449699 -98.22259098 296.21304522 -97.21679688 295.11523438 C-95.7109375 293.546875 -95.7109375 293.546875 -92.94140625 291.23046875 C-90.11543598 291.58473355 -87.8300071 292.68383149 -85.33203125 294.0078125 C-84.65914062 294.35650391 -83.98625 294.70519531 -83.29296875 295.06445312 C-81.90577878 295.79285678 -80.52031793 296.52456416 -79.13671875 297.25976562 C-71.51849668 301.19198481 -64.61674611 302.60708485 -56.06640625 302.54296875 C-54.88123413 302.53450928 -54.88123413 302.53450928 -53.67211914 302.52587891 C-43.32226866 302.31098839 -36.19253782 299.43876697 -27.94140625 293.23046875 C-26.93078125 292.50859375 -25.92015625 291.78671875 -24.87890625 291.04296875 C-16.71000866 283.94353686 -10.84072327 273.70880704 -9.06640625 263.04296875 C-7.8556203 244.78559107 -16.16857451 227.94213288 -23.27587891 211.63574219 C-26.92638935 203.19843306 -29.02093617 195.49862806 -27.94140625 186.23046875 C-25.94264797 182.66125754 -23.87238115 180.465918 -19.94140625 179.23046875 C-11.80933397 178.46329212 -6.14426446 181.57503109 0.02734375 186.46484375 C10.63877523 195.6886265 17.41772029 208.09840727 22.05859375 221.23046875 C27.63589189 219.11623146 32.64279504 216.18633738 37.80859375 213.23046875 C39.26458984 212.410625 39.26458984 212.410625 40.75 211.57421875 C41.67167969 211.04828125 42.59335937 210.52234375 43.54296875 209.98046875 C44.38569336 209.5009375 45.22841797 209.02140625 46.09667969 208.52734375 C48.1941944 207.37554652 48.1941944 207.37554652 49.05859375 205.23046875 C48.04433136 202.70547319 46.96907733 200.34090314 45.74609375 197.91796875 C45.39015137 197.20753418 45.03420898 196.49709961 44.66748047 195.76513672 C40.57166425 187.88152656 35.35329005 180.52516505 29.05859375 174.23046875 C29.37762694 170.79877753 30.80342451 169.12739017 33.21875 166.77734375 C33.84716797 166.15859375 34.47558594 165.53984375 35.12304688 164.90234375 C36.11208008 163.95101562 36.11208008 163.95101562 37.12109375 162.98046875 C37.78431641 162.33078125 38.44753906 161.68109375 39.13085938 161.01171875 C40.76688692 159.41100115 42.40950287 157.81770682 44.05859375 156.23046875 C40.29798266 151.75130642 36.44135228 147.43145132 32.30859375 143.29296875 C31.82777344 142.79990234 31.34695313 142.30683594 30.8515625 141.79882812 C29.62666515 140.56881282 28.34656527 139.39427308 27.05859375 138.23046875 C24.93829945 138.00499056 24.93829945 138.00499056 23.44213867 139.71508789 Z " fill="#030104" transform="translate(255.94140625,80.76953125)"/>
<path d="M0 0 C1.45873211 1.21630605 2.89417708 2.46038166 4.328125 3.70581055 C5.44767578 4.67454102 5.44767578 4.67454102 6.58984375 5.6628418 C23.70462774 21.63439857 34.58594099 46.7509465 35.45092773 70.00756836 C36.4427643 116.73543102 27.43813273 161.53502889 7.703125 204.01831055 C7.35531982 204.77635986 7.00751465 205.53440918 6.64916992 206.31542969 C3.45763602 212.99080065 -0.54133744 220.74924619 -7.671875 223.70581055 C-12.64780252 225.02020649 -16.1514773 224.75283657 -20.80859375 222.79956055 C-24.46346705 220.65414226 -26.78374106 217.48207843 -28.671875 213.70581055 C-29.90268012 205.28369096 -27.11144653 199.4490927 -23.234375 192.14331055 C-9.61375336 165.05293813 -1.15043683 135.83356782 2.328125 105.70581055 C2.52341797 104.16280273 2.52341797 104.16280273 2.72265625 102.58862305 C5.32962239 78.0483818 3.53807874 54.08776063 -11.671875 33.70581055 C-21.10286139 22.5712754 -33.22414433 15.97000714 -47.671875 13.70581055 C-65.08754414 12.71389949 -81.61209841 16.48585191 -95.609375 27.45581055 C-105.05013471 36.59922349 -112.54267772 48.61608633 -114.671875 61.70581055 C-114.8059375 62.51663086 -114.94 63.32745117 -115.078125 64.1628418 C-115.85616593 70.48442439 -115.55841319 76.53772976 -114.9140625 82.8425293 C-114.82589264 83.71256088 -114.73772278 84.58259247 -114.6468811 85.47898865 C-113.50791014 96.04483117 -111.52365201 106.44883462 -109.55273438 116.88476562 C-104.99643115 141.1616024 -104.99643115 141.1616024 -108.296875 148.14331055 C-111.55756945 151.66142824 -114.15050419 154.34033497 -119.0703125 155.0534668 C-124.31137138 155.23446433 -128.2525763 154.75723107 -132.671875 151.70581055 C-137.26223168 147.23132695 -137.96880867 142.33513163 -139.109375 136.26831055 C-139.41633301 134.71635986 -139.41633301 134.71635986 -139.72949219 133.13305664 C-154.71080856 55.93481223 -154.71080856 55.93481223 -133.859375 23.39331055 C-129.88741486 17.75373356 -125.42900607 12.68947167 -120.671875 7.70581055 C-120.13304687 7.0922168 -119.59421875 6.47862305 -119.0390625 5.84643555 C-89.52034238 -26.49065484 -32.89818061 -26.45528753 0 0 Z " fill="#030104" transform="translate(476.671875,18.294189453125)"/>
</svg>
